<svg width="40" height="50" viewBox="0 0 40 50" fill="none" xmlns="http://www.w3.org/2000/svg">
<path d="M19.1866 49.4685V46.6666H27.512V41.0627H24.7368C22.8174 41.0627 21.1814 40.3795 19.829 39.0131C18.4757 37.6477 17.799 35.9959 17.799 34.0579C17.799 32.6569 18.1806 31.3667 18.9438 30.187C19.7069 29.0084 20.736 28.1505 22.0311 27.6135C22.2392 25.8623 22.9968 24.3969 24.3039 23.2172C25.6101 22.0386 27.1419 21.4492 28.8995 21.4492C30.6571 21.4492 32.189 22.0386 33.4951 23.2172C34.8022 24.3969 35.5598 25.8623 35.7679 27.6135C37.063 28.1505 38.0921 29.0084 38.8553 30.187C39.6184 31.3667 40 32.6569 40 34.0579C40 35.9959 39.3238 37.6477 37.9714 39.0131C36.6181 40.3795 34.9817 41.0627 33.0622 41.0627H30.2871V46.6666H38.6124V49.4685H19.1866ZM24.7368 38.2608H33.0622C34.2185 38.2608 35.2014 37.8522 36.0108 37.035C36.8202 36.2177 37.2249 35.2254 37.2249 34.0579C37.2249 33.2173 36.9881 32.4468 36.5144 31.7463C36.0399 31.0458 35.4211 30.5321 34.6579 30.2053L33.201 29.5748L32.9928 27.9637C32.8541 26.913 32.3976 26.0313 31.6233 25.3187C30.8481 24.607 29.9402 24.2512 28.8995 24.2512C27.8589 24.2512 26.9514 24.607 26.1771 25.3187C25.4019 26.0313 24.945 26.913 24.8062 27.9637L24.5981 29.5748L23.1411 30.2053C22.378 30.5321 21.7596 31.0458 21.286 31.7463C20.8114 32.4468 20.5742 33.2173 20.5742 34.0579C20.5742 35.2254 20.9789 36.2177 21.7883 37.035C22.5977 37.8522 23.5805 38.2608 24.7368 38.2608Z" fill="#3DA6FF"/>
<path d="M18.0994 1.35325C19.9976 2.31824 21.7159 3.96073 23.3044 6.3194C24.3093 8.02535 24.8792 9.95645 24.9628 11.9395C25.0644 13.9989 24.5749 16.171 23.5092 18.4523L23.4143 18.6204L13.3856 33.149C13.2871 33.2953 13.1547 33.4151 12.9999 33.4979C12.845 33.5807 12.6725 33.624 12.4973 33.624C12.3221 33.624 12.1495 33.5807 11.9947 33.4979C11.8398 33.4151 11.7074 33.2953 11.609 33.149L1.85496 19.0273C1.10155 17.8322 0.554308 16.5169 0.236511 15.1371C-0.407872 12.2354 0.236512 8.23424 2.51433 5.09383C4.73887 2.0274 7.84256 0.529485 10.9796 0.11592C13.3739 -0.201819 15.6551 0.109195 18.1011 1.35325H18.0994ZM11.2543 2.37876C8.65012 2.72172 6.07759 3.96409 4.26099 6.46902C2.39611 9.03951 1.86329 12.348 2.3678 14.6226C2.60091 15.6784 3.04382 16.7342 3.66323 17.7429L12.4964 30.5298L21.5811 17.368C22.4652 15.4481 22.8582 13.6795 22.7766 12.0572C22.6933 10.3928 22.2504 8.88653 21.4778 7.57354C20.1258 5.5696 18.6772 4.18601 17.1403 3.40427C15.1039 2.36699 13.2474 2.11482 11.2543 2.37876ZM12.5397 6.47238C15.8016 6.47238 18.4574 9.16056 18.4574 12.4909C18.4574 15.8247 15.8016 18.5128 12.5397 18.5128C9.27952 18.5128 6.62206 15.8247 6.62206 12.4926C6.62206 9.16056 9.27952 6.47407 12.5397 6.47407V6.47238ZM12.5397 8.75372C10.475 8.75372 8.80997 10.4349 8.80997 12.4926C8.80997 14.5487 10.475 16.2315 12.5397 16.2315C14.6061 16.2315 16.2695 14.5504 16.2695 12.4926C16.2677 11.9999 16.1699 11.5123 15.9815 11.0577C15.7931 10.6031 15.5179 10.1904 15.1716 9.84324C14.8252 9.49605 14.4145 9.22113 13.963 9.03419C13.5114 8.84725 13.0278 8.75195 12.5397 8.75372Z" fill="#3DA6FF"/>
</svg>
