<svg width="78" height="94" viewBox="0 0 78 94" fill="none" xmlns="http://www.w3.org/2000/svg">
<g filter="url(#filter0_d_18_336)">
<path d="M37.4167 85.3333V80.5H51.9167V70.8333H47.0833C43.7403 70.8333 40.891 69.6548 38.5356 67.2977C36.1785 64.9423 35 62.0931 35 58.75C35 56.3333 35.6646 54.1076 36.9937 52.0728C38.3229 50.0395 40.1153 48.5597 42.3708 47.6333C42.7333 44.6125 44.0528 42.0847 46.3293 40.0498C48.6042 38.0166 51.2722 37 54.3333 37C57.3944 37 60.0624 38.0166 62.3373 40.0498C64.6138 42.0847 65.9333 44.6125 66.2958 47.6333C68.5514 48.5597 70.3438 50.0395 71.6729 52.0728C73.0021 54.1076 73.6667 56.3333 73.6667 58.75C73.6667 62.0931 72.4889 64.9423 70.1335 67.2977C67.7764 69.6548 64.9264 70.8333 61.5833 70.8333H56.75V80.5H71.25V85.3333H37.4167ZM47.0833 66H61.5833C63.5972 66 65.309 65.2951 66.7188 63.8854C68.1285 62.4757 68.8333 60.7639 68.8333 58.75C68.8333 57.3 68.4209 55.9708 67.596 54.7625C66.7695 53.5542 65.6917 52.6681 64.3625 52.1042L61.825 51.0167L61.4625 48.2375C61.2208 46.425 60.4258 44.9041 59.0773 43.6748C57.7271 42.4472 56.1458 41.8333 54.3333 41.8333C52.5208 41.8333 50.9403 42.4472 49.5918 43.6748C48.2417 44.9041 47.4458 46.425 47.2042 48.2375L46.8417 51.0167L44.3042 52.1042C42.975 52.6681 41.898 53.5542 41.0731 54.7625C40.2466 55.9708 39.8333 57.3 39.8333 58.75C39.8333 60.7639 40.5382 62.4757 41.9479 63.8854C43.3576 65.2951 45.0694 66 47.0833 66Z" fill="#3DA6FF"/>
<path d="M35.5231 2.33436C38.8291 3.99896 41.8219 6.83226 44.5885 10.901C46.3387 13.8437 47.3312 17.1749 47.4769 20.5957C47.6538 24.1482 46.8012 27.895 44.9452 31.8303L44.7799 32.1203L27.3132 57.1821C27.1417 57.4345 26.9111 57.6411 26.6414 57.7839C26.3717 57.9267 26.0712 58.0013 25.7661 58.0013C25.4609 58.0013 25.1604 57.9267 24.8907 57.7839C24.6211 57.6411 24.3904 57.4345 24.2189 57.1821L7.23073 32.8221C5.91853 30.7606 4.96542 28.4916 4.41192 26.1115C3.28962 21.1061 4.41192 14.2041 8.37913 8.78686C12.2535 3.49726 17.6591 0.913362 23.1227 0.199962C27.2929 -0.348138 31.2659 0.188362 35.526 2.33436H35.5231ZM23.6012 4.10336C19.0656 4.69496 14.5851 6.83806 11.4212 11.1591C8.17323 15.5932 7.24523 21.3004 8.12393 25.2241C8.52993 27.0453 9.30133 28.8665 10.3801 30.6065L25.7646 52.6639L41.587 29.9598C43.1269 26.648 43.8113 23.5972 43.6692 20.7987C43.5242 17.9277 42.7528 15.3293 41.4072 13.0644C39.0524 9.60756 36.5294 7.22086 33.8527 5.87236C30.306 4.08306 27.0725 3.64806 23.6012 4.10336ZM25.84 11.1649C31.5211 11.1649 36.1466 15.802 36.1466 21.5469C36.1466 27.2976 31.5211 31.9347 25.84 31.9347C20.1618 31.9347 15.5334 27.2976 15.5334 21.5498C15.5334 15.802 20.1618 11.1678 25.84 11.1678V11.1649ZM25.84 15.1002C22.244 15.1002 19.344 18.0002 19.344 21.5498C19.344 25.0965 22.244 27.9994 25.84 27.9994C29.4389 27.9994 32.336 25.0994 32.336 21.5498C32.333 20.6997 32.1626 19.8586 31.8345 19.0745C31.5064 18.2903 31.027 17.5785 30.4238 16.9796C29.8206 16.3807 29.1053 15.9065 28.3188 15.584C27.5324 15.2615 26.6901 15.0971 25.84 15.1002Z" fill="#3DA6FF"/>
</g>
<defs>
<filter id="filter0_d_18_336" x="0" y="0" width="78" height="95" filterUnits="userSpaceOnUse" color-interpolation-filters="sRGB">
<feFlood flood-opacity="0" result="BackgroundImageFix"/>
<feColorMatrix in="SourceAlpha" type="matrix" values="0 0 0 0 0 0 0 0 0 0 0 0 0 0 0 0 0 0 127 0" result="hardAlpha"/>
<feOffset dy="4"/>
<feGaussianBlur stdDeviation="2"/>
<feComposite in2="hardAlpha" operator="out"/>
<feColorMatrix type="matrix" values="0 0 0 0 0 0 0 0 0 0 0 0 0 0 0 0 0 0 0.25 0"/>
<feBlend mode="normal" in2="BackgroundImageFix" result="effect1_dropShadow_18_336"/>
<feBlend mode="normal" in="SourceGraphic" in2="effect1_dropShadow_18_336" result="shape"/>
</filter>
</defs>
</svg>
