<svg width="64" height="51" viewBox="0 0 64 51" fill="none" xmlns="http://www.w3.org/2000/svg">
<path fill-rule="evenodd" clip-rule="evenodd" d="M0 13.3842V19.0962C0.000350921 19.4375 0.0880208 19.773 0.254668 20.0708C0.421315 20.3686 0.661396 20.6188 0.952066 20.7976C1.24274 20.9764 1.57433 21.0779 1.91529 21.0923C2.25625 21.1068 2.59524 21.0338 2.9 20.8802L6.444 19.0962L7.952 18.3362L8 18.3082L13.616 15.4762L13.896 15.3322L16.544 14.0002L18.956 12.7802C19.2857 12.6131 19.5626 12.358 19.7561 12.0431C19.9495 11.7281 20.0519 11.3658 20.0519 10.9962C20.0519 10.6266 19.9495 10.2642 19.7561 9.94933C19.5626 9.63441 19.2857 9.37926 18.956 9.21219L16.544 7.99219L13.896 6.66019L13.616 6.51619L8 3.68819L7.952 3.66819L6.444 2.90819L2.9 1.12019C2.59524 0.966623 2.25625 0.893591 1.91529 0.908045C1.57433 0.922499 1.24274 1.02396 0.952066 1.20277C0.661396 1.38158 0.421315 1.6318 0.254668 1.92961C0.0880208 2.22743 0.000350921 2.56293 0 2.90419L0 13.3842ZM31 7.00019C30.2044 7.00019 29.4413 7.31626 28.8787 7.87887C28.3161 8.44148 28 9.20455 28 10.0002C28 10.7958 28.3161 11.5589 28.8787 12.1215C29.4413 12.6841 30.2044 13.0002 31 13.0002H57C57.2652 13.0002 57.5196 13.1056 57.7071 13.2931C57.8946 13.4806 58 13.735 58 14.0002V44.0002C58 44.2654 57.8946 44.5198 57.7071 44.7073C57.5196 44.8948 57.2652 45.0002 57 45.0002H19C18.7348 45.0002 18.4804 44.8948 18.2929 44.7073C18.1054 44.5198 18 44.2654 18 44.0002V26.0002C18 25.2045 17.6839 24.4415 17.1213 23.8789C16.5587 23.3163 15.7956 23.0002 15 23.0002C14.2044 23.0002 13.4413 23.3163 12.8787 23.8789C12.3161 24.4415 12 25.2045 12 26.0002V44.0002C12 47.8642 15.136 51.0002 19 51.0002H57C58.8565 51.0002 60.637 50.2627 61.9497 48.95C63.2625 47.6372 64 45.8567 64 44.0002V14.0002C64 12.1437 63.2625 10.3632 61.9497 9.05045C60.637 7.73769 58.8565 7.00019 57 7.00019H31ZM27 21.0002C26.2044 21.0002 25.4413 21.3163 24.8787 21.8789C24.3161 22.4415 24 23.2045 24 24.0002C24 24.7958 24.3161 25.5589 24.8787 26.1215C25.4413 26.6841 26.2044 27.0002 27 27.0002H49C49.7957 27.0002 50.5587 26.6841 51.1213 26.1215C51.6839 25.5589 52 24.7958 52 24.0002C52 23.2045 51.6839 22.4415 51.1213 21.8789C50.5587 21.3163 49.7957 21.0002 49 21.0002H27ZM24 34.0002C24 33.2045 24.3161 32.4415 24.8787 31.8789C25.4413 31.3163 26.2044 31.0002 27 31.0002H41C41.7957 31.0002 42.5587 31.3163 43.1213 31.8789C43.6839 32.4415 44 33.2045 44 34.0002C44 34.7958 43.6839 35.5589 43.1213 36.1215C42.5587 36.6841 41.7957 37.0002 41 37.0002H27C26.2044 37.0002 25.4413 36.6841 24.8787 36.1215C24.3161 35.5589 24 34.7958 24 34.0002Z" fill="#3DA6FF"/>
</svg>
