<svg width="60" height="66" viewBox="0 0 60 66" fill="none" xmlns="http://www.w3.org/2000/svg">
<path d="M0.833344 15.5V0.916687H15.4167V6.75002H6.66668V15.5H0.833344ZM53.3333 15.5V6.75002H44.5833V0.916687H59.1667V15.5H53.3333ZM0.833344 65.0834V50.5H6.66668V59.25H15.4167V65.0834H0.833344ZM44.5833 65.0834V59.25H53.3333V50.5H59.1667V65.0834H44.5833ZM15.4167 50.5H44.5833V15.5H15.4167V50.5ZM9.58334 56.3334V9.66669H50.4167V56.3334H9.58334ZM21.25 27.1667H38.75V21.3334H21.25V27.1667ZM21.25 35.9167H38.75V30.0834H21.25V35.9167ZM21.25 44.6667H38.75V38.8334H21.25V44.6667Z" fill="#3DA6FF"/>
</svg>
