<svg width="370" height="366" viewBox="0 0 370 366" fill="none" xmlns="http://www.w3.org/2000/svg">
<g filter="url(#filter0_i_91_204)">
<path d="M185.383 153.115C204.542 179.436 201.263 191.803 184.359 211.976C184.359 211.976 233.79 163.957 264.479 132.414C267.148 129.671 268.367 129.401 268.318 126.429C268.27 123.505 266.782 122.937 264.223 120.692C231.617 92.1 185.639 42.1287 185.639 42.1287C168.501 58.9771 165.531 78.8421 185.639 101.987L210.468 125.68L185.383 153.115Z" fill="url(#paint0_linear_91_204)"/>
</g>
<g filter="url(#filter1_i_91_204)">
<path d="M185.383 101.737C169.767 78.0433 167.227 66.0003 185.639 42.1286C185.639 42.1286 136.209 90.1471 105.52 121.69C102.851 124.433 101.632 124.703 101.681 127.676C101.729 130.599 103.217 131.167 105.776 133.412C138.382 162.004 184.36 211.976 184.36 211.976C201.498 195.127 204.468 175.262 184.36 152.118L159.531 128.424L185.383 101.737Z" fill="url(#paint1_linear_91_204)"/>
</g>
<path d="M203.009 37.6315L197.334 24.4953C196.817 23.3015 195.481 22.6827 194.209 23.0206L181.853 26.3032L203.009 37.6315Z" fill="#D7D7D7"/>
<path d="M175.763 26.3324L169.082 28.1074C155.7 31.6623 147.803 45.1255 151.452 58.164L153.465 65.3584L208.624 50.7049L206.611 43.5106C202.963 30.472 189.145 22.7775 175.763 26.3324Z" fill="#FFFBED"/>
<path d="M208.404 49.9089L149.638 65.5205L150.921 70.1071L209.687 54.4956L208.404 49.9089Z" fill="#FFFBED"/>
<path d="M154.524 69.1489L158.082 75.3766L191.139 59.422L154.524 69.1489Z" fill="#7C7D7F"/>
<path d="M209.702 54.4915L218.622 58.2414C220.053 58.835 220.168 61.0694 218.8 61.572C216.451 62.4344 213.123 63.4379 209.159 63.9941C199.786 65.3317 190.354 59.6113 190.354 59.6113L209.696 54.473L209.702 54.4915Z" fill="#FFFBED"/>
<path d="M178.535 45.6436L176.751 46.1176C173.182 47.0656 171.084 50.6432 172.056 54.1201L173.474 59.1876L188.166 55.2847L186.748 50.2173C185.775 46.7403 182.103 44.6956 178.535 45.6436Z" fill="#D7D7D7"/>
<path d="M207.9 48.1151L152.74 62.7686L153.242 64.5625L208.402 49.909L207.9 48.1151Z" fill="#717171"/>
<path d="M187.665 53.4899L172.974 57.3928L173.476 59.1868L188.167 55.2839L187.665 53.4899Z" fill="#FFFBED"/>
<path d="M155.532 70.9278L189.538 60.1851L190.456 59.6035L154.524 69.1489L155.532 70.9278Z" fill="#4E4F4F"/>
<path d="M198.601 30.8556C186.021 21.2428 171.933 25.482 171.933 25.482C171.933 25.482 157.582 28.778 151.755 43.3004C151.167 44.7682 151.99 46.3974 153.527 46.8632C154.838 47.25 156.238 46.6398 156.818 45.4327C158.78 41.2952 163.98 32.4032 173.186 29.9576C182.373 27.5171 191.504 32.6019 195.35 35.1964C196.478 35.9497 198.002 35.7834 198.93 34.8016C200.012 33.6399 199.867 31.8106 198.601 30.8556Z" fill="#D7D7D7"/>
<path d="M128.775 288.976L114.416 238.794H126.006L134.312 273.661H134.729L143.893 238.794H153.817L162.956 273.735H163.397L171.704 238.794H183.294L168.935 288.976H158.595L149.039 256.166H148.646L139.115 288.976H128.775ZM194.761 289.613C193.144 289.613 191.756 289.041 190.596 287.897C189.452 286.738 188.881 285.349 188.881 283.732C188.881 282.131 189.452 280.759 190.596 279.616C191.756 278.472 193.144 277.9 194.761 277.9C196.33 277.9 197.702 278.472 198.878 279.616C200.054 280.759 200.642 282.131 200.642 283.732C200.642 284.81 200.364 285.798 199.809 286.697C199.27 287.579 198.559 288.29 197.677 288.829C196.795 289.351 195.823 289.613 194.761 289.613ZM215.963 288.976V238.794H235.761C239.551 238.794 242.785 239.472 245.464 240.828C248.16 242.167 250.21 244.07 251.615 246.537C253.036 248.987 253.746 251.87 253.746 255.186C253.746 258.519 253.028 261.385 251.59 263.787C250.153 266.172 248.07 268.001 245.342 269.275C242.63 270.549 239.347 271.187 235.492 271.187H222.236V262.66H233.776C235.802 262.66 237.485 262.382 238.824 261.826C240.164 261.271 241.16 260.438 241.813 259.327C242.483 258.216 242.818 256.836 242.818 255.186C242.818 253.52 242.483 252.115 241.813 250.972C241.16 249.828 240.155 248.962 238.8 248.374C237.46 247.77 235.769 247.468 233.727 247.468H226.573V288.976H215.963ZM243.063 266.139L255.535 288.976H243.823L231.62 266.139H243.063ZM43.8246 311.885C43.7223 311.021 43.3075 310.351 42.5802 309.873C41.853 309.396 40.9609 309.157 39.9041 309.157C39.1314 309.157 38.4552 309.282 37.8757 309.532C37.3018 309.782 36.853 310.126 36.5291 310.564C36.2109 311.001 36.0518 311.498 36.0518 312.055C36.0518 312.521 36.1626 312.922 36.3842 313.257C36.6115 313.586 36.9013 313.862 37.2535 314.084C37.6058 314.299 37.9751 314.478 38.3615 314.62C38.7479 314.757 39.103 314.868 39.4268 314.953L41.1996 315.43C41.6541 315.549 42.1598 315.714 42.7166 315.924C43.2791 316.135 43.816 316.422 44.3274 316.785C44.8444 317.143 45.2706 317.603 45.6058 318.166C45.941 318.728 46.1086 319.419 46.1086 320.237C46.1086 321.18 45.8615 322.032 45.3672 322.794C44.8785 323.555 44.1626 324.16 43.2194 324.609C42.2819 325.058 41.1427 325.282 39.8018 325.282C38.5518 325.282 37.4694 325.081 36.5547 324.677C35.6456 324.274 34.9297 323.711 34.4069 322.99C33.8899 322.268 33.5973 321.43 33.5291 320.476H35.7109C35.7677 321.135 35.9893 321.68 36.3757 322.112C36.7677 322.538 37.2621 322.856 37.8586 323.066C38.4609 323.271 39.1086 323.373 39.8018 323.373C40.6086 323.373 41.3331 323.243 41.9751 322.981C42.6172 322.714 43.1257 322.345 43.5007 321.873C43.8757 321.396 44.0632 320.839 44.0632 320.203C44.0632 319.623 43.9013 319.152 43.5774 318.788C43.2535 318.424 42.8274 318.129 42.299 317.902C41.7706 317.674 41.1996 317.476 40.5859 317.305L38.4382 316.691C37.0746 316.299 35.995 315.74 35.1996 315.013C34.4041 314.285 34.0064 313.334 34.0064 312.157C34.0064 311.18 34.2706 310.328 34.799 309.601C35.3331 308.868 36.049 308.299 36.9467 307.896C37.8501 307.487 38.8586 307.282 39.9723 307.282C41.0973 307.282 42.0973 307.484 42.9723 307.888C43.8473 308.285 44.5405 308.831 45.0518 309.524C45.5689 310.217 45.8416 311.004 45.87 311.885H43.8246ZM57.0797 325.248C55.8183 325.248 54.7303 324.97 53.8155 324.413C52.9064 323.851 52.2047 323.066 51.7104 322.061C51.2217 321.049 50.9774 319.873 50.9774 318.532C50.9774 317.191 51.2217 316.01 51.7104 314.987C52.2047 313.959 52.8922 313.157 53.7729 312.584C54.6592 312.004 55.6933 311.714 56.8752 311.714C57.557 311.714 58.2303 311.828 58.895 312.055C59.5598 312.282 60.1649 312.652 60.7104 313.163C61.2558 313.669 61.6905 314.339 62.0144 315.174C62.3382 316.01 62.5002 317.038 62.5002 318.26V319.112H52.4092V317.373H60.4547C60.4547 316.635 60.307 315.976 60.0115 315.396C59.7217 314.816 59.307 314.359 58.7672 314.024C58.2331 313.689 57.6024 313.521 56.8752 313.521C56.074 313.521 55.3808 313.72 54.7956 314.118C54.2161 314.51 53.77 315.021 53.4575 315.652C53.145 316.282 52.9888 316.959 52.9888 317.68V318.839C52.9888 319.828 53.1592 320.666 53.5002 321.353C53.8467 322.035 54.3269 322.555 54.9405 322.913C55.5541 323.265 56.2672 323.441 57.0797 323.441C57.6081 323.441 58.0854 323.368 58.5115 323.22C58.9433 323.066 59.3155 322.839 59.628 322.538C59.9405 322.231 60.182 321.851 60.3524 321.396L62.2956 321.941C62.0911 322.601 61.7473 323.18 61.2644 323.68C60.7814 324.174 60.1848 324.561 59.4746 324.839C58.7644 325.112 57.9661 325.248 57.0797 325.248ZM73.1239 330.157C72.1523 330.157 71.3171 330.032 70.6182 329.782C69.9194 329.538 69.337 329.214 68.8711 328.811C68.4108 328.413 68.0444 327.987 67.7716 327.532L69.3739 326.407C69.5557 326.646 69.7858 326.919 70.0642 327.226C70.3427 327.538 70.7233 327.808 71.2063 328.035C71.6949 328.268 72.3341 328.385 73.1239 328.385C74.1807 328.385 75.0529 328.129 75.7404 327.618C76.4279 327.106 76.7716 326.305 76.7716 325.214V322.555H76.6012C76.4534 322.794 76.2432 323.089 75.9705 323.441C75.7034 323.788 75.3171 324.098 74.8114 324.37C74.3114 324.638 73.6353 324.771 72.783 324.771C71.7262 324.771 70.7773 324.521 69.9364 324.021C69.1012 323.521 68.4392 322.794 67.9506 321.839C67.4677 320.885 67.2262 319.726 67.2262 318.362C67.2262 317.021 67.462 315.853 67.9336 314.859C68.4052 313.859 69.0614 313.086 69.9023 312.541C70.7432 311.99 71.7148 311.714 72.8171 311.714C73.6694 311.714 74.3455 311.856 74.8455 312.14C75.3512 312.419 75.7375 312.737 76.0046 313.095C76.2773 313.447 76.4875 313.737 76.6353 313.964H76.8398V311.885H78.783V325.351C78.783 326.476 78.5273 327.39 78.0159 328.095C77.5103 328.805 76.8284 329.325 75.9705 329.655C75.1182 329.99 74.1694 330.157 73.1239 330.157ZM73.0557 322.964C73.8625 322.964 74.5444 322.78 75.1012 322.41C75.658 322.041 76.0813 321.51 76.3711 320.816C76.6608 320.123 76.8057 319.294 76.8057 318.328C76.8057 317.385 76.6637 316.552 76.3796 315.831C76.0955 315.109 75.675 314.544 75.1182 314.135C74.5614 313.726 73.8739 313.521 73.0557 313.521C72.2034 313.521 71.4932 313.737 70.925 314.169C70.3625 314.601 69.9392 315.18 69.6552 315.907C69.3767 316.635 69.2375 317.441 69.2375 318.328C69.2375 319.237 69.3796 320.041 69.6637 320.74C69.9534 321.433 70.3796 321.978 70.9421 322.376C71.5103 322.768 72.2148 322.964 73.0557 322.964ZM92.9948 319.623V311.885H95.0062V324.976H92.9948V322.76H92.8584C92.5516 323.424 92.0744 323.99 91.4266 324.456C90.7789 324.916 89.9607 325.146 88.9721 325.146C88.1539 325.146 87.4266 324.967 86.7903 324.609C86.1539 324.245 85.6539 323.7 85.2903 322.973C84.9266 322.24 84.7448 321.316 84.7448 320.203V311.885H86.7562V320.066C86.7562 321.021 87.0232 321.782 87.5573 322.351C88.0971 322.919 88.7846 323.203 89.6198 323.203C90.1198 323.203 90.6283 323.075 91.1454 322.819C91.6681 322.564 92.1056 322.172 92.4579 321.643C92.8158 321.115 92.9948 320.441 92.9948 319.623ZM100.97 324.976V311.885H102.913V313.862H103.05C103.288 313.214 103.72 312.689 104.345 312.285C104.97 311.882 105.675 311.68 106.459 311.68C106.606 311.68 106.791 311.683 107.013 311.689C107.234 311.694 107.402 311.703 107.516 311.714V313.76C107.447 313.743 107.291 313.717 107.047 313.683C106.808 313.643 106.555 313.623 106.288 313.623C105.652 313.623 105.084 313.757 104.584 314.024C104.089 314.285 103.697 314.649 103.408 315.115C103.124 315.575 102.981 316.101 102.981 316.691V324.976H100.97ZM116.032 325.282C115.203 325.282 114.45 325.126 113.774 324.814C113.097 324.495 112.56 324.038 112.163 323.441C111.765 322.839 111.566 322.112 111.566 321.26C111.566 320.51 111.714 319.902 112.009 319.436C112.305 318.964 112.7 318.595 113.194 318.328C113.688 318.061 114.234 317.862 114.83 317.731C115.433 317.595 116.038 317.487 116.646 317.407C117.441 317.305 118.086 317.228 118.58 317.177C119.08 317.12 119.444 317.027 119.671 316.896C119.904 316.765 120.021 316.538 120.021 316.214V316.146C120.021 315.305 119.791 314.652 119.33 314.186C118.876 313.72 118.185 313.487 117.259 313.487C116.299 313.487 115.546 313.697 115.001 314.118C114.455 314.538 114.072 314.987 113.85 315.464L111.941 314.782C112.282 313.987 112.737 313.368 113.305 312.924C113.879 312.476 114.504 312.163 115.18 311.987C115.862 311.805 116.532 311.714 117.191 311.714C117.612 311.714 118.095 311.765 118.64 311.868C119.191 311.964 119.722 312.166 120.234 312.473C120.751 312.78 121.18 313.243 121.521 313.862C121.862 314.481 122.032 315.311 122.032 316.351V324.976H120.021V323.203H119.918C119.782 323.487 119.555 323.791 119.237 324.115C118.918 324.439 118.495 324.714 117.967 324.941C117.438 325.169 116.793 325.282 116.032 325.282ZM116.339 323.476C117.134 323.476 117.805 323.319 118.35 323.007C118.901 322.694 119.316 322.291 119.595 321.797C119.879 321.302 120.021 320.782 120.021 320.237V318.396C119.935 318.498 119.748 318.592 119.458 318.677C119.174 318.757 118.845 318.828 118.47 318.89C118.1 318.947 117.739 318.998 117.387 319.044C117.041 319.084 116.759 319.118 116.543 319.146C116.021 319.214 115.532 319.325 115.078 319.478C114.629 319.626 114.265 319.851 113.987 320.152C113.714 320.447 113.578 320.851 113.578 321.362C113.578 322.061 113.836 322.589 114.353 322.947C114.876 323.299 115.538 323.476 116.339 323.476ZM129.995 317.101V324.976H127.983V311.885H129.926V313.93H130.097C130.404 313.265 130.87 312.731 131.495 312.328C132.12 311.919 132.926 311.714 133.915 311.714C134.801 311.714 135.577 311.896 136.242 312.26C136.907 312.618 137.424 313.163 137.793 313.896C138.162 314.623 138.347 315.544 138.347 316.657V324.976H136.336V316.794C136.336 315.765 136.068 314.964 135.534 314.39C135 313.811 134.267 313.521 133.336 313.521C132.693 313.521 132.12 313.66 131.614 313.939C131.114 314.217 130.719 314.623 130.429 315.157C130.14 315.691 129.995 316.339 129.995 317.101ZM149.62 325.248C148.393 325.248 147.336 324.959 146.45 324.379C145.564 323.799 144.882 323.001 144.405 321.984C143.927 320.967 143.689 319.805 143.689 318.498C143.689 317.169 143.933 315.995 144.422 314.978C144.916 313.956 145.603 313.157 146.484 312.584C147.37 312.004 148.405 311.714 149.586 311.714C150.507 311.714 151.336 311.885 152.075 312.226C152.814 312.566 153.419 313.044 153.89 313.657C154.362 314.271 154.655 314.987 154.768 315.805H152.757C152.603 315.209 152.263 314.68 151.734 314.22C151.211 313.754 150.507 313.521 149.62 313.521C148.836 313.521 148.149 313.726 147.558 314.135C146.973 314.538 146.515 315.109 146.186 315.848C145.862 316.581 145.7 317.441 145.7 318.43C145.7 319.441 145.859 320.322 146.177 321.072C146.501 321.822 146.956 322.405 147.541 322.819C148.132 323.234 148.825 323.441 149.62 323.441C150.143 323.441 150.618 323.351 151.044 323.169C151.47 322.987 151.831 322.726 152.126 322.385C152.422 322.044 152.632 321.635 152.757 321.157H154.768C154.655 321.93 154.373 322.626 153.924 323.245C153.481 323.859 152.893 324.348 152.16 324.711C151.433 325.069 150.586 325.248 149.62 325.248ZM148.666 324.907H150.336L150.2 325.589C150.643 325.657 151.049 325.842 151.419 326.143C151.788 326.45 151.973 326.936 151.973 327.601C151.973 328.334 151.669 328.93 151.061 329.39C150.459 329.856 149.569 330.089 148.393 330.089L148.325 328.76C148.853 328.76 149.291 328.674 149.638 328.504C149.99 328.339 150.166 328.061 150.166 327.669C150.166 327.277 150.021 327.01 149.731 326.868C149.442 326.726 148.973 326.629 148.325 326.578L148.666 324.907ZM163.841 325.282C163.011 325.282 162.258 325.126 161.582 324.814C160.906 324.495 160.369 324.038 159.972 323.441C159.574 322.839 159.375 322.112 159.375 321.26C159.375 320.51 159.523 319.902 159.818 319.436C160.114 318.964 160.508 318.595 161.003 318.328C161.497 318.061 162.043 317.862 162.639 317.731C163.241 317.595 163.847 317.487 164.454 317.407C165.25 317.305 165.895 317.228 166.389 317.177C166.889 317.12 167.253 317.027 167.48 316.896C167.713 316.765 167.829 316.538 167.829 316.214V316.146C167.829 315.305 167.599 314.652 167.139 314.186C166.685 313.72 165.994 313.487 165.068 313.487C164.108 313.487 163.355 313.697 162.81 314.118C162.264 314.538 161.881 314.987 161.659 315.464L159.75 314.782C160.091 313.987 160.545 313.368 161.114 312.924C161.687 312.476 162.312 312.163 162.989 311.987C163.67 311.805 164.341 311.714 165 311.714C165.42 311.714 165.903 311.765 166.449 311.868C167 311.964 167.531 312.166 168.043 312.473C168.56 312.78 168.989 313.243 169.329 313.862C169.67 314.481 169.841 315.311 169.841 316.351V324.976H167.829V323.203H167.727C167.591 323.487 167.364 323.791 167.045 324.115C166.727 324.439 166.304 324.714 165.775 324.941C165.247 325.169 164.602 325.282 163.841 325.282ZM164.148 323.476C164.943 323.476 165.614 323.319 166.159 323.007C166.71 322.694 167.125 322.291 167.403 321.797C167.687 321.302 167.829 320.782 167.829 320.237V318.396C167.744 318.498 167.557 318.592 167.267 318.677C166.983 318.757 166.653 318.828 166.278 318.89C165.909 318.947 165.548 318.998 165.196 319.044C164.849 319.084 164.568 319.118 164.352 319.146C163.829 319.214 163.341 319.325 162.886 319.478C162.437 319.626 162.074 319.851 161.795 320.152C161.523 320.447 161.386 320.851 161.386 321.362C161.386 322.061 161.645 322.589 162.162 322.947C162.685 323.299 163.347 323.476 164.148 323.476ZM189.765 325.248C188.674 325.248 187.711 324.973 186.876 324.422C186.041 323.865 185.387 323.081 184.916 322.069C184.444 321.052 184.208 319.851 184.208 318.464C184.208 317.089 184.444 315.896 184.916 314.885C185.387 313.873 186.044 313.092 186.885 312.541C187.725 311.99 188.697 311.714 189.799 311.714C190.652 311.714 191.325 311.856 191.819 312.14C192.319 312.419 192.7 312.737 192.961 313.095C193.228 313.447 193.436 313.737 193.583 313.964H193.754V307.521H195.765V324.976H193.822V322.964H193.583C193.436 323.203 193.225 323.504 192.953 323.868C192.68 324.226 192.291 324.547 191.785 324.831C191.279 325.109 190.606 325.248 189.765 325.248ZM190.038 323.441C190.845 323.441 191.527 323.231 192.083 322.811C192.64 322.385 193.063 321.797 193.353 321.047C193.643 320.291 193.788 319.419 193.788 318.43C193.788 317.453 193.646 316.598 193.362 315.865C193.078 315.126 192.657 314.552 192.1 314.143C191.544 313.728 190.856 313.521 190.038 313.521C189.186 313.521 188.475 313.74 187.907 314.177C187.345 314.609 186.921 315.197 186.637 315.941C186.359 316.68 186.22 317.51 186.22 318.43C186.22 319.362 186.362 320.209 186.646 320.97C186.936 321.726 187.362 322.328 187.924 322.777C188.492 323.22 189.197 323.441 190.038 323.441ZM207.326 325.248C206.145 325.248 205.108 324.967 204.216 324.405C203.329 323.842 202.636 323.055 202.136 322.044C201.642 321.032 201.395 319.851 201.395 318.498C201.395 317.135 201.642 315.944 202.136 314.927C202.636 313.91 203.329 313.12 204.216 312.558C205.108 311.995 206.145 311.714 207.326 311.714C208.508 311.714 209.542 311.995 210.429 312.558C211.321 313.12 212.014 313.91 212.508 314.927C213.008 315.944 213.258 317.135 213.258 318.498C213.258 319.851 213.008 321.032 212.508 322.044C212.014 323.055 211.321 323.842 210.429 324.405C209.542 324.967 208.508 325.248 207.326 325.248ZM207.326 323.441C208.224 323.441 208.963 323.211 209.542 322.751C210.122 322.291 210.551 321.686 210.829 320.936C211.108 320.186 211.247 319.373 211.247 318.498C211.247 317.623 211.108 316.808 210.829 316.052C210.551 315.297 210.122 314.686 209.542 314.22C208.963 313.754 208.224 313.521 207.326 313.521C206.429 313.521 205.69 313.754 205.111 314.22C204.531 314.686 204.102 315.297 203.824 316.052C203.545 316.808 203.406 317.623 203.406 318.498C203.406 319.373 203.545 320.186 203.824 320.936C204.102 321.686 204.531 322.291 205.111 322.751C205.69 323.211 206.429 323.441 207.326 323.441ZM233.332 311.885V313.589H226.548V311.885H233.332ZM228.525 308.748H230.536V321.226C230.536 321.794 230.619 322.22 230.783 322.504C230.954 322.782 231.17 322.97 231.431 323.066C231.698 323.157 231.979 323.203 232.275 323.203C232.497 323.203 232.678 323.191 232.82 323.169C232.962 323.14 233.076 323.118 233.161 323.101L233.57 324.907C233.434 324.959 233.244 325.01 232.999 325.061C232.755 325.118 232.445 325.146 232.07 325.146C231.502 325.146 230.945 325.024 230.4 324.78C229.86 324.535 229.411 324.163 229.053 323.663C228.701 323.163 228.525 322.532 228.525 321.771V308.748ZM238.637 324.976V311.885H240.58V313.862H240.717C240.955 313.214 241.387 312.689 242.012 312.285C242.637 311.882 243.342 311.68 244.126 311.68C244.274 311.68 244.458 311.683 244.68 311.689C244.902 311.694 245.069 311.703 245.183 311.714V313.76C245.115 313.743 244.958 313.717 244.714 313.683C244.475 313.643 244.223 313.623 243.955 313.623C243.319 313.623 242.751 313.757 242.251 314.024C241.757 314.285 241.365 314.649 241.075 315.115C240.791 315.575 240.649 316.101 240.649 316.691V324.976H238.637ZM253.699 325.282C252.87 325.282 252.117 325.126 251.441 324.814C250.765 324.495 250.228 324.038 249.83 323.441C249.432 322.839 249.233 322.112 249.233 321.26C249.233 320.51 249.381 319.902 249.677 319.436C249.972 318.964 250.367 318.595 250.861 318.328C251.356 318.061 251.901 317.862 252.498 317.731C253.1 317.595 253.705 317.487 254.313 317.407C255.108 317.305 255.753 317.228 256.248 317.177C256.748 317.12 257.111 317.027 257.338 316.896C257.571 316.765 257.688 316.538 257.688 316.214V316.146C257.688 315.305 257.458 314.652 256.998 314.186C256.543 313.72 255.853 313.487 254.927 313.487C253.966 313.487 253.213 313.697 252.668 314.118C252.123 314.538 251.739 314.987 251.517 315.464L249.608 314.782C249.949 313.987 250.404 313.368 250.972 312.924C251.546 312.476 252.171 312.163 252.847 311.987C253.529 311.805 254.199 311.714 254.858 311.714C255.279 311.714 255.762 311.765 256.307 311.868C256.858 311.964 257.39 312.166 257.901 312.473C258.418 312.78 258.847 313.243 259.188 313.862C259.529 314.481 259.699 315.311 259.699 316.351V324.976H257.688V323.203H257.586C257.449 323.487 257.222 323.791 256.904 324.115C256.586 324.439 256.162 324.714 255.634 324.941C255.106 325.169 254.461 325.282 253.699 325.282ZM254.006 323.476C254.802 323.476 255.472 323.319 256.017 323.007C256.569 322.694 256.983 322.291 257.262 321.797C257.546 321.302 257.688 320.782 257.688 320.237V318.396C257.603 318.498 257.415 318.592 257.125 318.677C256.841 318.757 256.512 318.828 256.137 318.89C255.767 318.947 255.407 318.998 255.054 319.044C254.708 319.084 254.427 319.118 254.211 319.146C253.688 319.214 253.199 319.325 252.745 319.478C252.296 319.626 251.932 319.851 251.654 320.152C251.381 320.447 251.245 320.851 251.245 321.362C251.245 322.061 251.503 322.589 252.02 322.947C252.543 323.299 253.205 323.476 254.006 323.476ZM265.923 324.976V307.521H267.935V313.964H268.105C268.253 313.737 268.457 313.447 268.719 313.095C268.986 312.737 269.366 312.419 269.861 312.14C270.361 311.856 271.037 311.714 271.889 311.714C272.991 311.714 273.963 311.99 274.804 312.541C275.645 313.092 276.301 313.873 276.773 314.885C277.244 315.896 277.48 317.089 277.48 318.464C277.48 319.851 277.244 321.052 276.773 322.069C276.301 323.081 275.648 323.865 274.812 324.422C273.977 324.973 273.014 325.248 271.923 325.248C271.082 325.248 270.409 325.109 269.903 324.831C269.398 324.547 269.008 324.226 268.736 323.868C268.463 323.504 268.253 323.203 268.105 322.964H267.866V324.976H265.923ZM267.9 318.43C267.9 319.419 268.045 320.291 268.335 321.047C268.625 321.797 269.048 322.385 269.605 322.811C270.162 323.231 270.844 323.441 271.65 323.441C272.491 323.441 273.193 323.22 273.756 322.777C274.324 322.328 274.75 321.726 275.034 320.97C275.324 320.209 275.469 319.362 275.469 318.43C275.469 317.51 275.327 316.68 275.042 315.941C274.764 315.197 274.341 314.609 273.773 314.177C273.21 313.74 272.503 313.521 271.65 313.521C270.832 313.521 270.145 313.728 269.588 314.143C269.031 314.552 268.611 315.126 268.327 315.865C268.042 316.598 267.9 317.453 267.9 318.43ZM286.689 325.282C285.859 325.282 285.107 325.126 284.43 324.814C283.754 324.495 283.217 324.038 282.82 323.441C282.422 322.839 282.223 322.112 282.223 321.26C282.223 320.51 282.371 319.902 282.666 319.436C282.962 318.964 283.357 318.595 283.851 318.328C284.345 318.061 284.891 317.862 285.487 317.731C286.09 317.595 286.695 317.487 287.303 317.407C288.098 317.305 288.743 317.228 289.237 317.177C289.737 317.12 290.101 317.027 290.328 316.896C290.561 316.765 290.678 316.538 290.678 316.214V316.146C290.678 315.305 290.447 314.652 289.987 314.186C289.533 313.72 288.842 313.487 287.916 313.487C286.956 313.487 286.203 313.697 285.658 314.118C285.112 314.538 284.729 314.987 284.507 315.464L282.598 314.782C282.939 313.987 283.394 313.368 283.962 312.924C284.536 312.476 285.161 312.163 285.837 311.987C286.519 311.805 287.189 311.714 287.848 311.714C288.269 311.714 288.751 311.765 289.297 311.868C289.848 311.964 290.379 312.166 290.891 312.473C291.408 312.78 291.837 313.243 292.178 313.862C292.519 314.481 292.689 315.311 292.689 316.351V324.976H290.678V323.203H290.575C290.439 323.487 290.212 323.791 289.894 324.115C289.575 324.439 289.152 324.714 288.624 324.941C288.095 325.169 287.45 325.282 286.689 325.282ZM286.996 323.476C287.791 323.476 288.462 323.319 289.007 323.007C289.558 322.694 289.973 322.291 290.251 321.797C290.536 321.302 290.678 320.782 290.678 320.237V318.396C290.592 318.498 290.405 318.592 290.115 318.677C289.831 318.757 289.501 318.828 289.126 318.89C288.757 318.947 288.396 318.998 288.044 319.044C287.697 319.084 287.416 319.118 287.2 319.146C286.678 319.214 286.189 319.325 285.734 319.478C285.286 319.626 284.922 319.851 284.644 320.152C284.371 320.447 284.234 320.851 284.234 321.362C284.234 322.061 284.493 322.589 285.01 322.947C285.533 323.299 286.195 323.476 286.996 323.476ZM300.651 307.521V324.976H298.64V307.521H300.651ZM308.627 317.101V324.976H306.615V307.521H308.627V313.93H308.797C309.104 313.254 309.564 312.717 310.178 312.319C310.797 311.916 311.621 311.714 312.65 311.714C313.542 311.714 314.323 311.893 314.993 312.251C315.664 312.603 316.184 313.146 316.553 313.879C316.928 314.606 317.115 315.532 317.115 316.657V324.976H315.104V316.794C315.104 315.754 314.834 314.95 314.294 314.382C313.76 313.808 313.019 313.521 312.07 313.521C311.411 313.521 310.82 313.66 310.297 313.939C309.78 314.217 309.371 314.623 309.07 315.157C308.775 315.691 308.627 316.339 308.627 317.101ZM328.393 325.248C327.211 325.248 326.175 324.967 325.283 324.405C324.396 323.842 323.703 323.055 323.203 322.044C322.709 321.032 322.461 319.851 322.461 318.498C322.461 317.135 322.709 315.944 323.203 314.927C323.703 313.91 324.396 313.12 325.283 312.558C326.175 311.995 327.211 311.714 328.393 311.714C329.575 311.714 330.609 311.995 331.496 312.558C332.388 313.12 333.081 313.91 333.575 314.927C334.075 315.944 334.325 317.135 334.325 318.498C334.325 319.851 334.075 321.032 333.575 322.044C333.081 323.055 332.388 323.842 331.496 324.405C330.609 324.967 329.575 325.248 328.393 325.248ZM328.393 323.441C329.291 323.441 330.03 323.211 330.609 322.751C331.189 322.291 331.618 321.686 331.896 320.936C332.175 320.186 332.314 319.373 332.314 318.498C332.314 317.623 332.175 316.808 331.896 316.052C331.618 315.297 331.189 314.686 330.609 314.22C330.03 313.754 329.291 313.521 328.393 313.521C327.496 313.521 326.757 313.754 326.177 314.22C325.598 314.686 325.169 315.297 324.89 316.052C324.612 316.808 324.473 317.623 324.473 318.498C324.473 319.373 324.612 320.186 324.89 320.936C325.169 321.686 325.598 322.291 326.177 322.751C326.757 323.211 327.496 323.441 328.393 323.441ZM149.636 360.976V343.521H151.749V359.101H159.863V360.976H149.636ZM162.141 345.396V343.521H175.232V345.396H169.743V360.976H167.629V345.396H162.141ZM186.16 360.976H180.774V343.521H186.399C188.092 343.521 189.541 343.87 190.745 344.569C191.95 345.263 192.873 346.26 193.515 347.561C194.157 348.856 194.478 350.407 194.478 352.214C194.478 354.032 194.154 355.598 193.507 356.91C192.859 358.217 191.916 359.223 190.677 359.927C189.439 360.626 187.933 360.976 186.16 360.976ZM182.887 359.101H186.024C187.467 359.101 188.663 358.822 189.612 358.265C190.561 357.709 191.268 356.916 191.734 355.888C192.2 354.859 192.433 353.635 192.433 352.214C192.433 350.805 192.203 349.592 191.743 348.575C191.282 347.552 190.595 346.768 189.68 346.223C188.765 345.672 187.626 345.396 186.262 345.396H182.887V359.101ZM200.199 360.976H197.983L204.393 343.521H206.574L212.983 360.976H210.768L205.552 346.282H205.415L200.199 360.976ZM201.018 354.157H209.949V356.032H201.018V354.157ZM219.175 361.112C218.755 361.112 218.394 360.961 218.093 360.66C217.792 360.359 217.641 359.998 217.641 359.578C217.641 359.157 217.792 358.797 218.093 358.495C218.394 358.194 218.755 358.044 219.175 358.044C219.596 358.044 219.957 358.194 220.258 358.495C220.559 358.797 220.71 359.157 220.71 359.578C220.71 359.856 220.638 360.112 220.496 360.345C220.36 360.578 220.175 360.765 219.942 360.907C219.715 361.044 219.46 361.112 219.175 361.112Z" fill="white"/>
<defs>
<filter id="filter0_i_91_204" x="170.649" y="22.1287" width="97.6699" height="189.847" filterUnits="userSpaceOnUse" color-interpolation-filters="sRGB">
<feFlood flood-opacity="0" result="BackgroundImageFix"/>
<feBlend mode="normal" in="SourceGraphic" in2="BackgroundImageFix" result="shape"/>
<feColorMatrix in="SourceAlpha" type="matrix" values="0 0 0 0 0 0 0 0 0 0 0 0 0 0 0 0 0 0 127 0" result="hardAlpha"/>
<feOffset dx="-1" dy="-20"/>
<feGaussianBlur stdDeviation="17"/>
<feComposite in2="hardAlpha" operator="arithmetic" k2="-1" k3="1"/>
<feColorMatrix type="matrix" values="0 0 0 0 0 0 0 0 0 0 0 0 0 0 0 0 0 0 0.25 0"/>
<feBlend mode="normal" in2="shape" result="effect1_innerShadow_91_204"/>
</filter>
<filter id="filter1_i_91_204" x="100.68" y="22.1287" width="97.6699" height="189.847" filterUnits="userSpaceOnUse" color-interpolation-filters="sRGB">
<feFlood flood-opacity="0" result="BackgroundImageFix"/>
<feBlend mode="normal" in="SourceGraphic" in2="BackgroundImageFix" result="shape"/>
<feColorMatrix in="SourceAlpha" type="matrix" values="0 0 0 0 0 0 0 0 0 0 0 0 0 0 0 0 0 0 127 0" result="hardAlpha"/>
<feOffset dx="-1" dy="-20"/>
<feGaussianBlur stdDeviation="17"/>
<feComposite in2="hardAlpha" operator="arithmetic" k2="-1" k3="1"/>
<feColorMatrix type="matrix" values="0 0 0 0 0 0 0 0 0 0 0 0 0 0 0 0 0 0 0.25 0"/>
<feBlend mode="normal" in2="shape" result="effect1_innerShadow_91_204"/>
</filter>
<linearGradient id="paint0_linear_91_204" x1="268.574" y1="52.6038" x2="153.436" y2="261.925" gradientUnits="userSpaceOnUse">
<stop stop-color="#2675C0"/>
<stop offset="0.720726" stop-color="#0F417C"/>
<stop offset="1" stop-color="#2675C0" stop-opacity="0"/>
</linearGradient>
<linearGradient id="paint1_linear_91_204" x1="101.425" y1="201.5" x2="216.563" y2="-7.82098" gradientUnits="userSpaceOnUse">
<stop stop-color="#2675C0"/>
<stop offset="0.720726" stop-color="#0F417C"/>
<stop offset="1" stop-color="#2675C0" stop-opacity="0"/>
</linearGradient>
</defs>
</svg>
