<svg width="338" height="338" viewBox="0 0 338 338" fill="none" xmlns="http://www.w3.org/2000/svg">
<path d="M103.685 268.565L89.326 218.383H100.916L109.222 253.251H109.639L118.803 218.383H128.727L137.866 253.324H138.307L146.614 218.383H158.203L143.845 268.565H133.505L123.949 235.756H123.556L114.025 268.565H103.685ZM169.671 269.202C168.054 269.202 166.666 268.631 165.506 267.487C164.362 266.327 163.791 264.939 163.791 263.322C163.791 261.721 164.362 260.349 165.506 259.205C166.666 258.062 168.054 257.49 169.671 257.49C171.239 257.49 172.612 258.062 173.788 259.205C174.964 260.349 175.552 261.721 175.552 263.322C175.552 264.4 175.274 265.388 174.719 266.286C174.18 267.169 173.469 267.879 172.587 268.418C171.705 268.941 170.733 269.202 169.671 269.202ZM190.873 268.565V218.383H210.671C214.461 218.383 217.695 219.061 220.374 220.417C223.07 221.757 225.12 223.66 226.525 226.126C227.946 228.577 228.656 231.46 228.656 234.776C228.656 238.108 227.938 240.975 226.5 243.376C225.063 245.761 222.98 247.591 220.252 248.865C217.54 250.139 214.257 250.776 210.402 250.776H197.146V242.249H208.686C210.712 242.249 212.395 241.971 213.734 241.416C215.074 240.861 216.07 240.028 216.723 238.917C217.393 237.806 217.728 236.426 217.728 234.776C217.728 233.11 217.393 231.705 216.723 230.561C216.07 229.418 215.065 228.552 213.71 227.964C212.37 227.36 210.679 227.057 208.637 227.057H201.483V268.565H190.873ZM217.973 245.729L230.445 268.565H218.733L206.53 245.729H217.973Z" fill="white"/>
<path d="M27.8246 294.909C27.7223 294.045 27.3075 293.375 26.5802 292.897C25.853 292.42 24.9609 292.182 23.9041 292.182C23.1314 292.182 22.4552 292.307 21.8757 292.557C21.3018 292.807 20.853 293.15 20.5291 293.588C20.2109 294.025 20.0518 294.522 20.0518 295.079C20.0518 295.545 20.1626 295.946 20.3842 296.281C20.6115 296.611 20.9013 296.886 21.2535 297.108C21.6058 297.324 21.9751 297.503 22.3615 297.645C22.7479 297.781 23.103 297.892 23.4268 297.977L25.1996 298.454C25.6541 298.574 26.1598 298.738 26.7166 298.949C27.2791 299.159 27.816 299.446 28.3274 299.809C28.8444 300.167 29.2706 300.628 29.6058 301.19C29.941 301.753 30.1086 302.443 30.1086 303.261C30.1086 304.204 29.8615 305.057 29.3672 305.818C28.8785 306.579 28.1626 307.184 27.2194 307.633C26.2819 308.082 25.1427 308.307 23.8018 308.307C22.5518 308.307 21.4694 308.105 20.5547 307.701C19.6456 307.298 18.9297 306.736 18.4069 306.014C17.8899 305.292 17.5973 304.454 17.5291 303.5H19.7109C19.7677 304.159 19.9893 304.704 20.3757 305.136C20.7677 305.562 21.2621 305.88 21.8586 306.091C22.4609 306.295 23.1086 306.397 23.8018 306.397C24.6086 306.397 25.3331 306.267 25.9751 306.005C26.6172 305.738 27.1257 305.369 27.5007 304.897C27.8757 304.42 28.0632 303.863 28.0632 303.227C28.0632 302.647 27.9013 302.176 27.5774 301.812C27.2535 301.449 26.8274 301.153 26.299 300.926C25.7706 300.699 25.1996 300.5 24.5859 300.329L22.4382 299.716C21.0746 299.324 19.995 298.764 19.1996 298.037C18.4041 297.309 18.0064 296.358 18.0064 295.182C18.0064 294.204 18.2706 293.352 18.799 292.625C19.3331 291.892 20.049 291.324 20.9467 290.92C21.8501 290.511 22.8586 290.307 23.9723 290.307C25.0973 290.307 26.0973 290.508 26.9723 290.912C27.8473 291.309 28.5405 291.855 29.0518 292.548C29.5689 293.241 29.8416 294.028 29.87 294.909H27.8246ZM41.0797 308.272C39.8183 308.272 38.7303 307.994 37.8155 307.437C36.9064 306.875 36.2047 306.091 35.7104 305.085C35.2217 304.074 34.9774 302.897 34.9774 301.557C34.9774 300.216 35.2217 299.034 35.7104 298.011C36.2047 296.983 36.8922 296.182 37.7729 295.608C38.6592 295.028 39.6933 294.738 40.8752 294.738C41.557 294.738 42.2303 294.852 42.895 295.079C43.5598 295.307 44.1649 295.676 44.7104 296.187C45.2558 296.693 45.6905 297.363 46.0144 298.199C46.3382 299.034 46.5002 300.062 46.5002 301.284V302.136H36.4092V300.397H44.4547C44.4547 299.659 44.307 299 44.0115 298.42C43.7217 297.841 43.307 297.383 42.7672 297.048C42.2331 296.713 41.6024 296.545 40.8752 296.545C40.074 296.545 39.3808 296.744 38.7956 297.142C38.2161 297.534 37.77 298.045 37.4575 298.676C37.145 299.307 36.9888 299.983 36.9888 300.704V301.863C36.9888 302.852 37.1592 303.69 37.5002 304.378C37.8467 305.059 38.3269 305.579 38.9405 305.937C39.5541 306.29 40.2672 306.466 41.0797 306.466C41.6081 306.466 42.0854 306.392 42.5115 306.244C42.9433 306.091 43.3155 305.863 43.628 305.562C43.9405 305.255 44.182 304.875 44.3524 304.42L46.2956 304.966C46.0911 305.625 45.7473 306.204 45.2644 306.704C44.7814 307.199 44.1848 307.585 43.4746 307.863C42.7644 308.136 41.9661 308.272 41.0797 308.272ZM57.1239 313.182C56.1523 313.182 55.3171 313.057 54.6182 312.807C53.9194 312.562 53.337 312.238 52.8711 311.835C52.4108 311.437 52.0444 311.011 51.7716 310.557L53.3739 309.432C53.5557 309.67 53.7858 309.943 54.0642 310.25C54.3427 310.562 54.7233 310.832 55.2063 311.059C55.6949 311.292 56.3341 311.409 57.1239 311.409C58.1807 311.409 59.0529 311.153 59.7404 310.642C60.4279 310.13 60.7716 309.329 60.7716 308.238V305.579H60.6012C60.4535 305.818 60.2432 306.113 59.9705 306.466C59.7035 306.812 59.3171 307.122 58.8114 307.395C58.3114 307.662 57.6353 307.795 56.783 307.795C55.7262 307.795 54.7773 307.545 53.9364 307.045C53.1012 306.545 52.4392 305.818 51.9506 304.863C51.4677 303.909 51.2262 302.75 51.2262 301.386C51.2262 300.045 51.462 298.878 51.9336 297.883C52.4052 296.883 53.0614 296.111 53.9023 295.565C54.7432 295.014 55.7148 294.738 56.8171 294.738C57.6694 294.738 58.3455 294.88 58.8455 295.165C59.3512 295.443 59.7375 295.761 60.0046 296.119C60.2773 296.471 60.4875 296.761 60.6353 296.988H60.8398V294.909H62.783V308.375C62.783 309.5 62.5273 310.415 62.016 311.119C61.5103 311.829 60.8285 312.349 59.9705 312.679C59.1182 313.014 58.1694 313.182 57.1239 313.182ZM57.0557 305.988C57.8625 305.988 58.5444 305.804 59.1012 305.434C59.658 305.065 60.0813 304.534 60.3711 303.841C60.6608 303.147 60.8057 302.318 60.8057 301.352C60.8057 300.409 60.6637 299.576 60.3796 298.855C60.0955 298.133 59.675 297.568 59.1182 297.159C58.5614 296.75 57.8739 296.545 57.0557 296.545C56.2035 296.545 55.4932 296.761 54.925 297.193C54.3625 297.625 53.9392 298.204 53.6552 298.932C53.3767 299.659 53.2375 300.466 53.2375 301.352C53.2375 302.261 53.3796 303.065 53.6637 303.764C53.9535 304.457 54.3796 305.003 54.9421 305.4C55.5103 305.792 56.2148 305.988 57.0557 305.988ZM76.9948 302.647V294.909H79.0062V308H76.9948V305.784H76.8584C76.5516 306.449 76.0744 307.014 75.4266 307.48C74.7789 307.94 73.9607 308.17 72.9721 308.17C72.1539 308.17 71.4266 307.991 70.7903 307.633C70.1539 307.27 69.6539 306.724 69.2903 305.997C68.9266 305.264 68.7448 304.341 68.7448 303.227V294.909H70.7562V303.091C70.7562 304.045 71.0232 304.807 71.5573 305.375C72.0971 305.943 72.7846 306.227 73.6198 306.227C74.1198 306.227 74.6283 306.099 75.1454 305.844C75.6681 305.588 76.1056 305.196 76.4579 304.667C76.8158 304.139 76.9948 303.466 76.9948 302.647ZM84.9701 308V294.909H86.9133V296.886H87.0497C87.2883 296.238 87.7201 295.713 88.3451 295.309C88.9701 294.906 89.6747 294.704 90.4588 294.704C90.6065 294.704 90.7912 294.707 91.0127 294.713C91.2343 294.719 91.4019 294.727 91.5156 294.738V296.784C91.4474 296.767 91.2912 296.741 91.0468 296.707C90.8082 296.667 90.5554 296.647 90.2883 296.647C89.6519 296.647 89.0838 296.781 88.5838 297.048C88.0894 297.309 87.6974 297.673 87.4076 298.139C87.1235 298.599 86.9815 299.125 86.9815 299.716V308H84.9701ZM100.032 308.307C99.2025 308.307 98.4497 308.15 97.7736 307.838C97.0974 307.52 96.5605 307.062 96.1628 306.466C95.765 305.863 95.5662 305.136 95.5662 304.284C95.5662 303.534 95.7139 302.926 96.0094 302.46C96.3048 301.988 96.6997 301.619 97.194 301.352C97.6883 301.085 98.2338 300.886 98.8304 300.755C99.4327 300.619 100.038 300.511 100.646 300.432C101.441 300.329 102.086 300.253 102.58 300.201C103.08 300.145 103.444 300.051 103.671 299.92C103.904 299.79 104.021 299.562 104.021 299.238V299.17C104.021 298.329 103.791 297.676 103.33 297.21C102.876 296.744 102.185 296.511 101.259 296.511C100.299 296.511 99.5463 296.721 99.0008 297.142C98.4554 297.562 98.0719 298.011 97.8503 298.488L95.9412 297.807C96.2821 297.011 96.7366 296.392 97.3048 295.949C97.8787 295.5 98.5037 295.187 99.1798 295.011C99.8616 294.829 100.532 294.738 101.191 294.738C101.612 294.738 102.095 294.79 102.64 294.892C103.191 294.988 103.722 295.19 104.234 295.497C104.751 295.804 105.18 296.267 105.521 296.886C105.862 297.505 106.032 298.335 106.032 299.375V308H104.021V306.227H103.918C103.782 306.511 103.555 306.815 103.237 307.139C102.918 307.463 102.495 307.738 101.967 307.966C101.438 308.193 100.793 308.307 100.032 308.307ZM100.339 306.5C101.134 306.5 101.805 306.344 102.35 306.031C102.901 305.719 103.316 305.315 103.595 304.821C103.879 304.326 104.021 303.807 104.021 303.261V301.42C103.935 301.522 103.748 301.616 103.458 301.701C103.174 301.781 102.845 301.852 102.47 301.915C102.1 301.971 101.739 302.022 101.387 302.068C101.041 302.108 100.759 302.142 100.543 302.17C100.021 302.238 99.5321 302.349 99.0775 302.503C98.6287 302.65 98.265 302.875 97.9866 303.176C97.7139 303.471 97.5775 303.875 97.5775 304.386C97.5775 305.085 97.8361 305.613 98.3531 305.971C98.8758 306.324 99.5378 306.5 100.339 306.5ZM113.995 300.125V308H111.983V294.909H113.926V296.954H114.097C114.404 296.29 114.87 295.755 115.495 295.352C116.12 294.943 116.926 294.738 117.915 294.738C118.801 294.738 119.577 294.92 120.242 295.284C120.907 295.642 121.424 296.187 121.793 296.92C122.162 297.647 122.347 298.568 122.347 299.682V308H120.336V299.818C120.336 298.79 120.068 297.988 119.534 297.415C119 296.835 118.267 296.545 117.336 296.545C116.693 296.545 116.12 296.684 115.614 296.963C115.114 297.241 114.719 297.647 114.429 298.182C114.14 298.716 113.995 299.363 113.995 300.125ZM133.62 308.272C132.393 308.272 131.336 307.983 130.45 307.403C129.564 306.824 128.882 306.025 128.405 305.008C127.927 303.991 127.689 302.829 127.689 301.522C127.689 300.193 127.933 299.02 128.422 298.003C128.916 296.98 129.603 296.182 130.484 295.608C131.37 295.028 132.405 294.738 133.586 294.738C134.507 294.738 135.336 294.909 136.075 295.25C136.814 295.591 137.419 296.068 137.89 296.682C138.362 297.295 138.655 298.011 138.768 298.829H136.757C136.603 298.233 136.263 297.704 135.734 297.244C135.211 296.778 134.507 296.545 133.62 296.545C132.836 296.545 132.149 296.75 131.558 297.159C130.973 297.562 130.515 298.133 130.186 298.872C129.862 299.605 129.7 300.466 129.7 301.454C129.7 302.466 129.859 303.346 130.177 304.096C130.501 304.846 130.956 305.429 131.541 305.844C132.132 306.258 132.825 306.466 133.62 306.466C134.143 306.466 134.618 306.375 135.044 306.193C135.47 306.011 135.831 305.75 136.126 305.409C136.422 305.068 136.632 304.659 136.757 304.182H138.768C138.655 304.954 138.373 305.65 137.924 306.27C137.481 306.883 136.893 307.372 136.16 307.736C135.433 308.094 134.586 308.272 133.62 308.272ZM132.666 307.932H134.336L134.2 308.613C134.643 308.682 135.049 308.866 135.419 309.167C135.788 309.474 135.973 309.96 135.973 310.625C135.973 311.358 135.669 311.954 135.061 312.415C134.459 312.88 133.569 313.113 132.393 313.113L132.325 311.784C132.853 311.784 133.291 311.699 133.638 311.528C133.99 311.363 134.166 311.085 134.166 310.693C134.166 310.301 134.021 310.034 133.731 309.892C133.442 309.75 132.973 309.653 132.325 309.602L132.666 307.932ZM147.841 308.307C147.011 308.307 146.258 308.15 145.582 307.838C144.906 307.52 144.369 307.062 143.972 306.466C143.574 305.863 143.375 305.136 143.375 304.284C143.375 303.534 143.523 302.926 143.818 302.46C144.114 301.988 144.508 301.619 145.003 301.352C145.497 301.085 146.043 300.886 146.639 300.755C147.241 300.619 147.847 300.511 148.454 300.432C149.25 300.329 149.895 300.253 150.389 300.201C150.889 300.145 151.253 300.051 151.48 299.92C151.713 299.79 151.829 299.562 151.829 299.238V299.17C151.829 298.329 151.599 297.676 151.139 297.21C150.685 296.744 149.994 296.511 149.068 296.511C148.108 296.511 147.355 296.721 146.81 297.142C146.264 297.562 145.881 298.011 145.659 298.488L143.75 297.807C144.091 297.011 144.545 296.392 145.114 295.949C145.687 295.5 146.312 295.187 146.989 295.011C147.67 294.829 148.341 294.738 149 294.738C149.42 294.738 149.903 294.79 150.449 294.892C151 294.988 151.531 295.19 152.043 295.497C152.56 295.804 152.989 296.267 153.329 296.886C153.67 297.505 153.841 298.335 153.841 299.375V308H151.829V306.227H151.727C151.591 306.511 151.364 306.815 151.045 307.139C150.727 307.463 150.304 307.738 149.775 307.966C149.247 308.193 148.602 308.307 147.841 308.307ZM148.148 306.5C148.943 306.5 149.614 306.344 150.159 306.031C150.71 305.719 151.125 305.315 151.403 304.821C151.687 304.326 151.829 303.807 151.829 303.261V301.42C151.744 301.522 151.557 301.616 151.267 301.701C150.983 301.781 150.653 301.852 150.278 301.915C149.909 301.971 149.548 302.022 149.196 302.068C148.849 302.108 148.568 302.142 148.352 302.17C147.829 302.238 147.341 302.349 146.886 302.503C146.437 302.65 146.074 302.875 145.795 303.176C145.523 303.471 145.386 303.875 145.386 304.386C145.386 305.085 145.645 305.613 146.162 305.971C146.685 306.324 147.347 306.5 148.148 306.5ZM173.765 308.272C172.674 308.272 171.711 307.997 170.876 307.446C170.041 306.889 169.387 306.105 168.916 305.094C168.444 304.076 168.208 302.875 168.208 301.488C168.208 300.113 168.444 298.92 168.916 297.909C169.387 296.897 170.044 296.116 170.885 295.565C171.725 295.014 172.697 294.738 173.799 294.738C174.652 294.738 175.325 294.88 175.819 295.165C176.319 295.443 176.7 295.761 176.961 296.119C177.228 296.471 177.436 296.761 177.583 296.988H177.754V290.545H179.765V308H177.822V305.988H177.583C177.436 306.227 177.225 306.528 176.953 306.892C176.68 307.25 176.291 307.571 175.785 307.855C175.279 308.133 174.606 308.272 173.765 308.272ZM174.038 306.466C174.845 306.466 175.527 306.255 176.083 305.835C176.64 305.409 177.063 304.821 177.353 304.071C177.643 303.315 177.788 302.443 177.788 301.454C177.788 300.477 177.646 299.622 177.362 298.889C177.078 298.15 176.657 297.576 176.1 297.167C175.544 296.753 174.856 296.545 174.038 296.545C173.186 296.545 172.475 296.764 171.907 297.201C171.345 297.633 170.921 298.221 170.637 298.966C170.359 299.704 170.22 300.534 170.22 301.454C170.22 302.386 170.362 303.233 170.646 303.994C170.936 304.75 171.362 305.352 171.924 305.801C172.492 306.244 173.197 306.466 174.038 306.466ZM191.326 308.272C190.145 308.272 189.108 307.991 188.216 307.429C187.329 306.866 186.636 306.079 186.136 305.068C185.642 304.057 185.395 302.875 185.395 301.522C185.395 300.159 185.642 298.969 186.136 297.951C186.636 296.934 187.329 296.145 188.216 295.582C189.108 295.02 190.145 294.738 191.326 294.738C192.508 294.738 193.542 295.02 194.429 295.582C195.321 296.145 196.014 296.934 196.508 297.951C197.008 298.969 197.258 300.159 197.258 301.522C197.258 302.875 197.008 304.057 196.508 305.068C196.014 306.079 195.321 306.866 194.429 307.429C193.542 307.991 192.508 308.272 191.326 308.272ZM191.326 306.466C192.224 306.466 192.963 306.236 193.542 305.775C194.122 305.315 194.551 304.71 194.829 303.96C195.108 303.21 195.247 302.397 195.247 301.522C195.247 300.647 195.108 299.832 194.829 299.076C194.551 298.321 194.122 297.71 193.542 297.244C192.963 296.778 192.224 296.545 191.326 296.545C190.429 296.545 189.69 296.778 189.111 297.244C188.531 297.71 188.102 298.321 187.824 299.076C187.545 299.832 187.406 300.647 187.406 301.522C187.406 302.397 187.545 303.21 187.824 303.96C188.102 304.71 188.531 305.315 189.111 305.775C189.69 306.236 190.429 306.466 191.326 306.466ZM217.332 294.909V296.613H210.548V294.909H217.332ZM212.525 291.772H214.536V304.25C214.536 304.818 214.619 305.244 214.783 305.528C214.954 305.807 215.17 305.994 215.431 306.091C215.698 306.182 215.979 306.227 216.275 306.227C216.497 306.227 216.678 306.216 216.82 306.193C216.962 306.165 217.076 306.142 217.161 306.125L217.57 307.932C217.434 307.983 217.244 308.034 216.999 308.085C216.755 308.142 216.445 308.17 216.07 308.17C215.502 308.17 214.945 308.048 214.4 307.804C213.86 307.559 213.411 307.187 213.053 306.687C212.701 306.187 212.525 305.557 212.525 304.795V291.772ZM222.637 308V294.909H224.58V296.886H224.717C224.955 296.238 225.387 295.713 226.012 295.309C226.637 294.906 227.342 294.704 228.126 294.704C228.274 294.704 228.458 294.707 228.68 294.713C228.902 294.719 229.069 294.727 229.183 294.738V296.784C229.115 296.767 228.958 296.741 228.714 296.707C228.475 296.667 228.223 296.647 227.955 296.647C227.319 296.647 226.751 296.781 226.251 297.048C225.757 297.309 225.365 297.673 225.075 298.139C224.791 298.599 224.649 299.125 224.649 299.716V308H222.637ZM237.699 308.307C236.87 308.307 236.117 308.15 235.441 307.838C234.765 307.52 234.228 307.062 233.83 306.466C233.432 305.863 233.233 305.136 233.233 304.284C233.233 303.534 233.381 302.926 233.677 302.46C233.972 301.988 234.367 301.619 234.861 301.352C235.356 301.085 235.901 300.886 236.498 300.755C237.1 300.619 237.705 300.511 238.313 300.432C239.108 300.329 239.753 300.253 240.248 300.201C240.748 300.145 241.111 300.051 241.338 299.92C241.571 299.79 241.688 299.562 241.688 299.238V299.17C241.688 298.329 241.458 297.676 240.998 297.21C240.543 296.744 239.853 296.511 238.927 296.511C237.966 296.511 237.213 296.721 236.668 297.142C236.123 297.562 235.739 298.011 235.517 298.488L233.608 297.807C233.949 297.011 234.404 296.392 234.972 295.949C235.546 295.5 236.171 295.187 236.847 295.011C237.529 294.829 238.199 294.738 238.858 294.738C239.279 294.738 239.762 294.79 240.307 294.892C240.858 294.988 241.39 295.19 241.901 295.497C242.418 295.804 242.847 296.267 243.188 296.886C243.529 297.505 243.699 298.335 243.699 299.375V308H241.688V306.227H241.586C241.449 306.511 241.222 306.815 240.904 307.139C240.586 307.463 240.162 307.738 239.634 307.966C239.106 308.193 238.461 308.307 237.699 308.307ZM238.006 306.5C238.802 306.5 239.472 306.344 240.017 306.031C240.569 305.719 240.983 305.315 241.262 304.821C241.546 304.326 241.688 303.807 241.688 303.261V301.42C241.603 301.522 241.415 301.616 241.125 301.701C240.841 301.781 240.512 301.852 240.137 301.915C239.767 301.971 239.407 302.022 239.054 302.068C238.708 302.108 238.427 302.142 238.211 302.17C237.688 302.238 237.199 302.349 236.745 302.503C236.296 302.65 235.932 302.875 235.654 303.176C235.381 303.471 235.245 303.875 235.245 304.386C235.245 305.085 235.503 305.613 236.02 305.971C236.543 306.324 237.205 306.5 238.006 306.5ZM249.923 308V290.545H251.935V296.988H252.105C252.253 296.761 252.457 296.471 252.719 296.119C252.986 295.761 253.366 295.443 253.861 295.165C254.361 294.88 255.037 294.738 255.889 294.738C256.991 294.738 257.963 295.014 258.804 295.565C259.645 296.116 260.301 296.897 260.773 297.909C261.244 298.92 261.48 300.113 261.48 301.488C261.48 302.875 261.244 304.076 260.773 305.094C260.301 306.105 259.648 306.889 258.812 307.446C257.977 307.997 257.014 308.272 255.923 308.272C255.082 308.272 254.409 308.133 253.903 307.855C253.398 307.571 253.008 307.25 252.736 306.892C252.463 306.528 252.253 306.227 252.105 305.988H251.866V308H249.923ZM251.9 301.454C251.9 302.443 252.045 303.315 252.335 304.071C252.625 304.821 253.048 305.409 253.605 305.835C254.162 306.255 254.844 306.466 255.65 306.466C256.491 306.466 257.193 306.244 257.756 305.801C258.324 305.352 258.75 304.75 259.034 303.994C259.324 303.233 259.469 302.386 259.469 301.454C259.469 300.534 259.327 299.704 259.042 298.966C258.764 298.221 258.341 297.633 257.773 297.201C257.21 296.764 256.503 296.545 255.65 296.545C254.832 296.545 254.145 296.753 253.588 297.167C253.031 297.576 252.611 298.15 252.327 298.889C252.042 299.622 251.9 300.477 251.9 301.454ZM270.689 308.307C269.859 308.307 269.107 308.15 268.43 307.838C267.754 307.52 267.217 307.062 266.82 306.466C266.422 305.863 266.223 305.136 266.223 304.284C266.223 303.534 266.371 302.926 266.666 302.46C266.962 301.988 267.357 301.619 267.851 301.352C268.345 301.085 268.891 300.886 269.487 300.755C270.09 300.619 270.695 300.511 271.303 300.432C272.098 300.329 272.743 300.253 273.237 300.201C273.737 300.145 274.101 300.051 274.328 299.92C274.561 299.79 274.678 299.562 274.678 299.238V299.17C274.678 298.329 274.447 297.676 273.987 297.21C273.533 296.744 272.842 296.511 271.916 296.511C270.956 296.511 270.203 296.721 269.658 297.142C269.112 297.562 268.729 298.011 268.507 298.488L266.598 297.807C266.939 297.011 267.394 296.392 267.962 295.949C268.536 295.5 269.161 295.187 269.837 295.011C270.519 294.829 271.189 294.738 271.848 294.738C272.269 294.738 272.751 294.79 273.297 294.892C273.848 294.988 274.379 295.19 274.891 295.497C275.408 295.804 275.837 296.267 276.178 296.886C276.519 297.505 276.689 298.335 276.689 299.375V308H274.678V306.227H274.575C274.439 306.511 274.212 306.815 273.894 307.139C273.575 307.463 273.152 307.738 272.624 307.966C272.095 308.193 271.45 308.307 270.689 308.307ZM270.996 306.5C271.791 306.5 272.462 306.344 273.007 306.031C273.558 305.719 273.973 305.315 274.251 304.821C274.536 304.326 274.678 303.807 274.678 303.261V301.42C274.592 301.522 274.405 301.616 274.115 301.701C273.831 301.781 273.501 301.852 273.126 301.915C272.757 301.971 272.396 302.022 272.044 302.068C271.697 302.108 271.416 302.142 271.2 302.17C270.678 302.238 270.189 302.349 269.734 302.503C269.286 302.65 268.922 302.875 268.644 303.176C268.371 303.471 268.234 303.875 268.234 304.386C268.234 305.085 268.493 305.613 269.01 305.971C269.533 306.324 270.195 306.5 270.996 306.5ZM284.651 290.545V308H282.64V290.545H284.651ZM292.627 300.125V308H290.615V290.545H292.627V296.954H292.797C293.104 296.278 293.564 295.741 294.178 295.344C294.797 294.94 295.621 294.738 296.65 294.738C297.542 294.738 298.323 294.917 298.993 295.275C299.664 295.628 300.184 296.17 300.553 296.903C300.928 297.63 301.115 298.557 301.115 299.682V308H299.104V299.818C299.104 298.778 298.834 297.974 298.294 297.406C297.76 296.832 297.019 296.545 296.07 296.545C295.411 296.545 294.82 296.684 294.297 296.963C293.78 297.241 293.371 297.647 293.07 298.182C292.775 298.716 292.627 299.363 292.627 300.125ZM312.393 308.272C311.211 308.272 310.175 307.991 309.283 307.429C308.396 306.866 307.703 306.079 307.203 305.068C306.709 304.057 306.461 302.875 306.461 301.522C306.461 300.159 306.709 298.969 307.203 297.951C307.703 296.934 308.396 296.145 309.283 295.582C310.175 295.02 311.211 294.738 312.393 294.738C313.575 294.738 314.609 295.02 315.496 295.582C316.388 296.145 317.081 296.934 317.575 297.951C318.075 298.969 318.325 300.159 318.325 301.522C318.325 302.875 318.075 304.057 317.575 305.068C317.081 306.079 316.388 306.866 315.496 307.429C314.609 307.991 313.575 308.272 312.393 308.272ZM312.393 306.466C313.291 306.466 314.03 306.236 314.609 305.775C315.189 305.315 315.618 304.71 315.896 303.96C316.175 303.21 316.314 302.397 316.314 301.522C316.314 300.647 316.175 299.832 315.896 299.076C315.618 298.321 315.189 297.71 314.609 297.244C314.03 296.778 313.291 296.545 312.393 296.545C311.496 296.545 310.757 296.778 310.177 297.244C309.598 297.71 309.169 298.321 308.89 299.076C308.612 299.832 308.473 300.647 308.473 301.522C308.473 302.397 308.612 303.21 308.89 303.96C309.169 304.71 309.598 305.315 310.177 305.775C310.757 306.236 311.496 306.466 312.393 306.466ZM138.265 337V319.545H140.378V335.125H148.492V337H138.265ZM158.926 323.909V325.613H152.142V323.909H158.926ZM154.119 320.772H156.131V333.25C156.131 333.818 156.213 334.244 156.378 334.528C156.548 334.807 156.764 334.994 157.025 335.091C157.292 335.182 157.574 335.227 157.869 335.227C158.091 335.227 158.273 335.216 158.415 335.193C158.557 335.165 158.67 335.142 158.756 335.125L159.165 336.932C159.028 336.983 158.838 337.034 158.594 337.085C158.349 337.142 158.04 337.17 157.665 337.17C157.096 337.17 156.54 337.048 155.994 336.804C155.454 336.559 155.006 336.187 154.648 335.687C154.295 335.187 154.119 334.557 154.119 333.795V320.772ZM169.034 337.272C167.943 337.272 166.98 336.997 166.145 336.446C165.31 335.889 164.656 335.105 164.185 334.094C163.713 333.076 163.477 331.875 163.477 330.488C163.477 329.113 163.713 327.92 164.185 326.909C164.656 325.897 165.313 325.116 166.153 324.565C166.994 324.014 167.966 323.738 169.068 323.738C169.92 323.738 170.594 323.88 171.088 324.165C171.588 324.443 171.969 324.761 172.23 325.119C172.497 325.471 172.705 325.761 172.852 325.988H173.023V319.545H175.034V337H173.091V334.988H172.852C172.705 335.227 172.494 335.528 172.222 335.892C171.949 336.25 171.56 336.571 171.054 336.855C170.548 337.133 169.875 337.272 169.034 337.272ZM169.307 335.466C170.114 335.466 170.795 335.255 171.352 334.835C171.909 334.409 172.332 333.821 172.622 333.071C172.912 332.315 173.057 331.443 173.057 330.454C173.057 329.477 172.915 328.622 172.631 327.889C172.347 327.15 171.926 326.576 171.369 326.167C170.813 325.753 170.125 325.545 169.307 325.545C168.455 325.545 167.744 325.764 167.176 326.201C166.614 326.633 166.19 327.221 165.906 327.966C165.628 328.704 165.489 329.534 165.489 330.454C165.489 331.386 165.631 332.233 165.915 332.994C166.205 333.75 166.631 334.352 167.193 334.801C167.761 335.244 168.466 335.466 169.307 335.466ZM185.129 337.307C184.3 337.307 183.547 337.15 182.871 336.838C182.195 336.52 181.658 336.062 181.26 335.466C180.862 334.863 180.664 334.136 180.664 333.284C180.664 332.534 180.811 331.926 181.107 331.46C181.402 330.988 181.797 330.619 182.291 330.352C182.786 330.085 183.331 329.886 183.928 329.755C184.53 329.619 185.135 329.511 185.743 329.432C186.539 329.329 187.183 329.253 187.678 329.201C188.178 329.145 188.541 329.051 188.769 328.92C189.002 328.79 189.118 328.562 189.118 328.238V328.17C189.118 327.329 188.888 326.676 188.428 326.21C187.973 325.744 187.283 325.511 186.357 325.511C185.396 325.511 184.644 325.721 184.098 326.142C183.553 326.562 183.169 327.011 182.948 327.488L181.039 326.807C181.379 326.011 181.834 325.392 182.402 324.949C182.976 324.5 183.601 324.187 184.277 324.011C184.959 323.829 185.629 323.738 186.289 323.738C186.709 323.738 187.192 323.79 187.737 323.892C188.289 323.988 188.82 324.19 189.331 324.497C189.848 324.804 190.277 325.267 190.618 325.886C190.959 326.505 191.129 327.335 191.129 328.375V337H189.118V335.227H189.016C188.879 335.511 188.652 335.815 188.334 336.139C188.016 336.463 187.592 336.738 187.064 336.966C186.536 337.193 185.891 337.307 185.129 337.307ZM185.436 335.5C186.232 335.5 186.902 335.344 187.448 335.031C187.999 334.719 188.414 334.315 188.692 333.821C188.976 333.326 189.118 332.807 189.118 332.261V330.42C189.033 330.522 188.845 330.616 188.556 330.701C188.271 330.781 187.942 330.852 187.567 330.915C187.198 330.971 186.837 331.022 186.485 331.068C186.138 331.108 185.857 331.142 185.641 331.17C185.118 331.238 184.629 331.349 184.175 331.503C183.726 331.65 183.362 331.875 183.084 332.176C182.811 332.471 182.675 332.875 182.675 333.386C182.675 334.085 182.933 334.613 183.45 334.971C183.973 335.324 184.635 335.5 185.436 335.5ZM198.547 337.136C198.126 337.136 197.765 336.986 197.464 336.684C197.163 336.383 197.012 336.022 197.012 335.602C197.012 335.182 197.163 334.821 197.464 334.52C197.765 334.219 198.126 334.068 198.547 334.068C198.967 334.068 199.328 334.219 199.629 334.52C199.93 334.821 200.081 335.182 200.081 335.602C200.081 335.88 200.01 336.136 199.868 336.369C199.731 336.602 199.547 336.79 199.314 336.932C199.086 337.068 198.831 337.136 198.547 337.136Z" fill="white"/>
<g filter="url(#filter0_i_91_204)">
<path d="M162.982 126.041C180.146 150.241 177.208 161.611 162.065 180.157C162.065 180.157 206.346 136.009 233.838 107.009C236.229 104.486 237.321 104.238 237.277 101.505C237.234 98.8175 235.901 98.2949 233.608 96.2312C204.4 69.9434 163.211 23.9998 163.211 23.9998C147.859 39.4902 145.198 57.7541 163.211 79.0332L185.454 100.817L162.982 126.041Z" fill="url(#paint0_linear_91_204)"/>
</g>
<g filter="url(#filter1_i_91_204)">
<path d="M162.983 78.8039C148.994 57.0198 146.718 45.9474 163.212 23.9997C163.212 23.9997 118.932 68.148 91.4407 97.1484C89.0495 99.6708 87.957 99.9186 88.0011 102.652C88.0445 105.339 89.3769 105.862 91.67 107.926C120.879 134.214 162.067 180.157 162.067 180.157C177.419 164.667 180.08 146.403 162.067 125.124L139.824 103.34L162.983 78.8039Z" fill="url(#paint1_linear_91_204)"/>
</g>
<path d="M178.771 19.8652L173.688 7.78771C173.224 6.69018 172.028 6.12125 170.889 6.43187L159.819 9.44995L178.771 19.8652Z" fill="#D7D7D7"/>
<path d="M154.365 9.47665L148.38 11.1085C136.392 14.377 129.318 26.755 132.586 38.7427L134.39 45.3572L183.803 31.8847L181.999 25.2702C178.731 13.2826 166.353 6.20822 154.365 9.47665Z" fill="#FFFBED"/>
<path d="M183.605 31.1531L130.961 45.5063L132.111 49.7233L184.754 35.37L183.605 31.1531Z" fill="#FFFBED"/>
<path d="M135.339 48.8423L138.526 54.5681L168.139 39.8993L135.339 48.8423Z" fill="#7C7D7F"/>
<path d="M184.767 35.3661L192.758 38.8137C194.04 39.3595 194.143 41.4138 192.917 41.8759C190.814 42.6688 187.832 43.5914 184.281 44.1027C175.884 45.3326 167.436 40.0732 167.436 40.0732L184.762 35.3491L184.767 35.3661Z" fill="#FFFBED"/>
<path d="M156.847 27.2314L155.249 27.6671C152.052 28.5387 150.172 31.828 151.044 35.0247L152.314 39.6837L165.475 36.0954L164.205 31.4364C163.333 28.2397 160.044 26.3598 156.847 27.2314Z" fill="#D7D7D7"/>
<path d="M183.153 29.5036L133.74 42.9761L134.19 44.6254L183.603 31.153L183.153 29.5036Z" fill="#717171"/>
<path d="M165.027 34.4454L151.866 38.0337L152.316 39.6831L165.477 36.0947L165.027 34.4454Z" fill="#FFFBED"/>
<path d="M136.241 50.4778L166.705 40.601L167.527 40.0662L135.339 48.8423L136.241 50.4778Z" fill="#4E4F4F"/>
<path d="M174.824 13.6352C163.554 4.79724 150.934 8.69475 150.934 8.69475C150.934 8.69475 138.078 11.7251 132.858 25.0771C132.331 26.4265 133.068 27.9244 134.446 28.3527C135.62 28.7083 136.874 28.1472 137.393 27.0374C139.151 23.2334 143.809 15.0582 152.056 12.8097C160.286 10.5658 168.466 15.2408 171.911 17.6262C172.922 18.3188 174.287 18.1658 175.119 17.2632C176.088 16.1951 175.958 14.5133 174.824 13.6352Z" fill="#D7D7D7"/>
<defs>
<filter id="filter0_i_91_204" x="149.68" y="3.99976" width="87.5986" height="176.157" filterUnits="userSpaceOnUse" color-interpolation-filters="sRGB">
<feFlood flood-opacity="0" result="BackgroundImageFix"/>
<feBlend mode="normal" in="SourceGraphic" in2="BackgroundImageFix" result="shape"/>
<feColorMatrix in="SourceAlpha" type="matrix" values="0 0 0 0 0 0 0 0 0 0 0 0 0 0 0 0 0 0 127 0" result="hardAlpha"/>
<feOffset dx="-1" dy="-20"/>
<feGaussianBlur stdDeviation="17"/>
<feComposite in2="hardAlpha" operator="arithmetic" k2="-1" k3="1"/>
<feColorMatrix type="matrix" values="0 0 0 0 0 0 0 0 0 0 0 0 0 0 0 0 0 0 0.25 0"/>
<feBlend mode="normal" in2="shape" result="effect1_innerShadow_91_204"/>
</filter>
<filter id="filter1_i_91_204" x="87" y="3.99976" width="87.5986" height="176.157" filterUnits="userSpaceOnUse" color-interpolation-filters="sRGB">
<feFlood flood-opacity="0" result="BackgroundImageFix"/>
<feBlend mode="normal" in="SourceGraphic" in2="BackgroundImageFix" result="shape"/>
<feColorMatrix in="SourceAlpha" type="matrix" values="0 0 0 0 0 0 0 0 0 0 0 0 0 0 0 0 0 0 127 0" result="hardAlpha"/>
<feOffset dx="-1" dy="-20"/>
<feGaussianBlur stdDeviation="17"/>
<feComposite in2="hardAlpha" operator="arithmetic" k2="-1" k3="1"/>
<feColorMatrix type="matrix" values="0 0 0 0 0 0 0 0 0 0 0 0 0 0 0 0 0 0 0.25 0"/>
<feBlend mode="normal" in2="shape" result="effect1_innerShadow_91_204"/>
</filter>
<linearGradient id="paint0_linear_91_204" x1="237.507" y1="33.6306" x2="130.191" y2="223.725" gradientUnits="userSpaceOnUse">
<stop stop-color="#2675C0"/>
<stop offset="0.720726" stop-color="#0F417C"/>
<stop offset="1" stop-color="#2675C0" stop-opacity="0"/>
</linearGradient>
<linearGradient id="paint1_linear_91_204" x1="87.7718" y1="170.526" x2="195.087" y2="-19.5684" gradientUnits="userSpaceOnUse">
<stop stop-color="#2675C0"/>
<stop offset="0.720726" stop-color="#0F417C"/>
<stop offset="1" stop-color="#2675C0" stop-opacity="0"/>
</linearGradient>
</defs>
</svg>
