<svg width="587" height="641" viewBox="0 0 587 641" fill="none" xmlns="http://www.w3.org/2000/svg">
<g filter="url(#filter0_i_22_2204)">
<path d="M293.5 222.5C329.049 275.322 322.577 300.128 291.5 340.5C291.5 340.5 388.055 244.235 448 181C453.214 175.5 455.596 174.96 455.5 169C455.405 163.139 452.5 162 447.5 157.5C383.811 100.18 294 0 294 0C260.525 33.7768 254.723 73.601 294 120L342.5 167.5L293.5 222.5Z" fill="url(#paint0_linear_22_2204)"/>
</g>
<g filter="url(#filter1_i_22_2204)">
<path d="M293.5 119.5C262.997 72 258.035 47.8568 294 0C294 0 197.448 96.2649 137.503 159.5C132.289 165 129.907 165.54 130.003 171.5C130.097 177.361 133.003 178.5 138.003 183C201.692 240.32 291.503 340.5 291.503 340.5C324.978 306.723 330.78 266.899 291.503 220.5L243.003 173L293.5 119.5Z" fill="url(#paint1_linear_22_2204)"/>
</g>
<path d="M192.776 497L168.221 411.182H188.041L202.246 470.81H202.959L218.631 411.182H235.602L251.232 470.936H251.986L266.191 411.182H286.011L261.456 497H243.773L227.43 440.891H226.76L210.46 497H192.776ZM305.623 498.089C302.857 498.089 300.483 497.112 298.499 495.156C296.544 493.173 295.566 490.798 295.566 488.033C295.566 485.295 296.544 482.948 298.499 480.993C300.483 479.037 302.857 478.06 305.623 478.06C308.305 478.06 310.651 479.037 312.663 480.993C314.674 482.948 315.68 485.295 315.68 488.033C315.68 489.876 315.205 491.567 314.255 493.103C313.333 494.612 312.118 495.827 310.61 496.749C309.101 497.643 307.439 498.089 305.623 498.089ZM341.881 497V411.182H375.739C382.22 411.182 387.751 412.341 392.332 414.66C396.942 416.951 400.448 420.205 402.85 424.423C405.281 428.614 406.496 433.544 406.496 439.215C406.496 444.914 405.267 449.817 402.808 453.923C400.35 458.002 396.788 461.131 392.123 463.31C387.486 465.489 381.871 466.578 375.278 466.578H352.608V451.996H372.345C375.809 451.996 378.686 451.521 380.977 450.571C383.267 449.621 384.971 448.196 386.089 446.297C387.234 444.397 387.807 442.037 387.807 439.215C387.807 436.366 387.234 433.963 386.089 432.008C384.971 430.052 383.253 428.572 380.935 427.566C378.644 426.532 375.753 426.016 372.261 426.016H360.025V497H341.881ZM388.226 457.946L409.555 497H389.525L368.657 457.946H388.226Z" fill="black"/>
<path d="M87.6191 543.909C87.47 542.65 86.8651 541.672 85.8045 540.976C84.7439 540.28 83.443 539.932 81.9018 539.932C80.7749 539.932 79.7889 540.114 78.9437 540.479C78.1068 540.843 77.4522 541.345 76.9799 541.983C76.5159 542.621 76.2839 543.346 76.2839 544.158C76.2839 544.837 76.4455 545.421 76.7686 545.91C77.1001 546.391 77.5227 546.793 78.0364 547.116C78.5501 547.431 79.0887 547.692 79.6522 547.899C80.2156 548.098 80.7335 548.259 81.2058 548.384L83.791 549.08C84.4539 549.254 85.1914 549.494 86.0034 549.8C86.8237 550.107 87.6067 550.525 88.3525 551.056C89.1065 551.578 89.7279 552.249 90.2168 553.069C90.7057 553.89 90.9501 554.896 90.9501 556.089C90.9501 557.465 90.5897 558.708 89.8688 559.818C89.1562 560.929 88.1122 561.811 86.7367 562.466C85.3695 563.12 83.7082 563.447 81.7527 563.447C79.9297 563.447 78.3513 563.153 77.0172 562.565C75.6915 561.977 74.6474 561.156 73.8851 560.104C73.1311 559.052 72.7044 557.83 72.6049 556.438H75.7868C75.8696 557.399 76.1928 558.194 76.7562 558.824C77.328 559.445 78.0488 559.909 78.9189 560.216C79.7972 560.514 80.7418 560.663 81.7527 560.663C82.9293 560.663 83.9857 560.473 84.9221 560.092C85.8584 559.702 86.6 559.164 87.1468 558.476C87.6937 557.78 87.9672 556.968 87.9672 556.04C87.9672 555.195 87.731 554.507 87.2587 553.977C86.7864 553.446 86.165 553.015 85.3944 552.684C84.6238 552.353 83.791 552.062 82.8961 551.814L79.764 550.919C77.7754 550.347 76.2011 549.531 75.041 548.471C73.881 547.41 73.301 546.022 73.301 544.307C73.301 542.882 73.6863 541.639 74.4569 540.578C75.2357 539.509 76.2798 538.681 77.589 538.092C78.9064 537.496 80.3772 537.197 82.0012 537.197C83.6419 537.197 85.1002 537.492 86.3762 538.08C87.6523 538.66 88.6632 539.455 89.4089 540.466C90.1629 541.477 90.5607 542.625 90.6021 543.909H87.6191ZM106.95 563.398C105.11 563.398 103.523 562.992 102.189 562.18C100.864 561.359 99.8402 560.216 99.1193 558.749C98.4067 557.274 98.0504 555.559 98.0504 553.604C98.0504 551.648 98.4067 549.925 99.1193 548.433C99.8402 546.933 100.843 545.765 102.127 544.928C103.42 544.083 104.928 543.661 106.651 543.661C107.646 543.661 108.627 543.826 109.597 544.158C110.566 544.489 111.449 545.028 112.244 545.773C113.04 546.511 113.674 547.489 114.146 548.707C114.618 549.925 114.854 551.424 114.854 553.206V554.449H100.138V551.913H111.871C111.871 550.836 111.656 549.875 111.225 549.03C110.803 548.185 110.198 547.518 109.41 547.029C108.632 546.54 107.712 546.295 106.651 546.295C105.483 546.295 104.472 546.585 103.619 547.165C102.773 547.737 102.123 548.483 101.667 549.403C101.212 550.322 100.984 551.308 100.984 552.361V554.051C100.984 555.493 101.232 556.715 101.729 557.718C102.235 558.712 102.935 559.47 103.83 559.992C104.725 560.506 105.765 560.763 106.95 560.763C107.72 560.763 108.416 560.655 109.038 560.44C109.667 560.216 110.21 559.884 110.666 559.445C111.122 558.998 111.474 558.443 111.722 557.78L114.556 558.575C114.258 559.536 113.756 560.382 113.052 561.111C112.348 561.832 111.478 562.395 110.442 562.801C109.406 563.199 108.242 563.398 106.95 563.398ZM130.347 570.557C128.93 570.557 127.712 570.375 126.693 570.01C125.674 569.654 124.825 569.181 124.145 568.593C123.474 568.013 122.94 567.392 122.542 566.729L124.879 565.088C125.144 565.436 125.479 565.834 125.885 566.281C126.291 566.737 126.847 567.131 127.551 567.462C128.263 567.802 129.196 567.972 130.347 567.972C131.889 567.972 133.16 567.599 134.163 566.853C135.166 566.107 135.667 564.939 135.667 563.348V559.47H135.418C135.203 559.818 134.896 560.249 134.499 560.763C134.109 561.268 133.546 561.72 132.808 562.118C132.079 562.507 131.093 562.702 129.85 562.702C128.309 562.702 126.925 562.337 125.699 561.608C124.481 560.879 123.516 559.818 122.803 558.426C122.099 557.034 121.747 555.344 121.747 553.355C121.747 551.4 122.09 549.697 122.778 548.247C123.466 546.788 124.423 545.662 125.649 544.866C126.876 544.062 128.292 543.661 129.9 543.661C131.143 543.661 132.129 543.868 132.858 544.282C133.595 544.688 134.159 545.152 134.548 545.674C134.946 546.188 135.253 546.61 135.468 546.942H135.766V543.909H138.6V563.547C138.6 565.188 138.227 566.522 137.482 567.549C136.744 568.585 135.75 569.343 134.499 569.824C133.256 570.312 131.872 570.557 130.347 570.557ZM130.248 560.067C131.425 560.067 132.419 559.797 133.231 559.259C134.043 558.72 134.66 557.946 135.083 556.935C135.505 555.924 135.717 554.714 135.717 553.305C135.717 551.93 135.51 550.716 135.095 549.664C134.681 548.611 134.068 547.787 133.256 547.19C132.444 546.594 131.441 546.295 130.248 546.295C129.005 546.295 127.969 546.61 127.141 547.24C126.32 547.87 125.703 548.715 125.289 549.776C124.883 550.836 124.68 552.013 124.68 553.305C124.68 554.631 124.887 555.804 125.301 556.823C125.724 557.834 126.345 558.629 127.166 559.209C127.994 559.781 129.022 560.067 130.248 560.067ZM159.326 555.195V543.909H162.259V563H159.326V559.768H159.127C158.679 560.738 157.983 561.562 157.039 562.242C156.094 562.913 154.901 563.249 153.459 563.249C152.266 563.249 151.205 562.988 150.277 562.466C149.349 561.935 148.62 561.14 148.09 560.079C147.56 559.01 147.295 557.664 147.295 556.04V543.909H150.228V555.841C150.228 557.233 150.617 558.343 151.396 559.172C152.183 560 153.186 560.415 154.404 560.415C155.133 560.415 155.875 560.228 156.629 559.855C157.391 559.483 158.029 558.911 158.543 558.14C159.065 557.37 159.326 556.388 159.326 555.195ZM170.956 563V543.909H173.79V546.793H173.989C174.337 545.848 174.967 545.082 175.878 544.493C176.79 543.905 177.817 543.611 178.961 543.611C179.176 543.611 179.445 543.615 179.769 543.623C180.092 543.632 180.336 543.644 180.502 543.661V546.643C180.402 546.619 180.175 546.581 179.818 546.532C179.47 546.474 179.102 546.445 178.712 546.445C177.784 546.445 176.955 546.639 176.226 547.029C175.505 547.41 174.934 547.94 174.511 548.62C174.097 549.291 173.89 550.057 173.89 550.919V563H170.956ZM192.922 563.447C191.712 563.447 190.614 563.22 189.628 562.764C188.642 562.3 187.859 561.633 187.279 560.763C186.699 559.884 186.409 558.824 186.409 557.581C186.409 556.487 186.624 555.601 187.055 554.921C187.486 554.233 188.062 553.695 188.783 553.305C189.504 552.916 190.299 552.626 191.169 552.435C192.048 552.237 192.93 552.079 193.817 551.963C194.977 551.814 195.917 551.702 196.638 551.627C197.367 551.545 197.898 551.408 198.229 551.217C198.569 551.027 198.739 550.695 198.739 550.223V550.124C198.739 548.897 198.403 547.944 197.732 547.265C197.069 546.585 196.062 546.246 194.712 546.246C193.311 546.246 192.213 546.552 191.418 547.165C190.622 547.779 190.063 548.433 189.74 549.129L186.956 548.135C187.453 546.975 188.116 546.072 188.945 545.425C189.781 544.771 190.693 544.315 191.679 544.058C192.673 543.793 193.651 543.661 194.612 543.661C195.225 543.661 195.93 543.735 196.725 543.884C197.529 544.025 198.304 544.319 199.049 544.767C199.803 545.214 200.429 545.889 200.926 546.793C201.423 547.696 201.672 548.906 201.672 550.422V563H198.739V560.415H198.589C198.391 560.829 198.059 561.272 197.595 561.745C197.131 562.217 196.514 562.619 195.743 562.95C194.973 563.282 194.032 563.447 192.922 563.447ZM193.369 560.812C194.529 560.812 195.507 560.585 196.302 560.129C197.106 559.673 197.711 559.085 198.117 558.364C198.531 557.643 198.739 556.885 198.739 556.089V553.405C198.614 553.554 198.341 553.691 197.918 553.815C197.504 553.931 197.023 554.035 196.476 554.126C195.938 554.209 195.412 554.283 194.898 554.349C194.393 554.407 193.982 554.457 193.668 554.499C192.905 554.598 192.193 554.76 191.53 554.983C190.875 555.199 190.345 555.526 189.939 555.965C189.541 556.396 189.342 556.984 189.342 557.73C189.342 558.749 189.719 559.52 190.473 560.042C191.236 560.556 192.201 560.812 193.369 560.812ZM213.284 551.516V563H210.351V543.909H213.184V546.892H213.433C213.88 545.923 214.56 545.144 215.471 544.555C216.383 543.959 217.559 543.661 219.001 543.661C220.294 543.661 221.425 543.926 222.394 544.456C223.364 544.978 224.118 545.773 224.656 546.842C225.195 547.903 225.464 549.245 225.464 550.869V563H222.531V551.068C222.531 549.568 222.142 548.4 221.363 547.563C220.584 546.718 219.515 546.295 218.156 546.295C217.22 546.295 216.383 546.498 215.645 546.904C214.916 547.31 214.34 547.903 213.918 548.682C213.495 549.461 213.284 550.405 213.284 551.516ZM241.905 563.398C240.115 563.398 238.574 562.975 237.281 562.13C235.989 561.285 234.994 560.121 234.298 558.637C233.602 557.154 233.254 555.46 233.254 553.554C233.254 551.615 233.611 549.904 234.323 548.421C235.044 546.929 236.047 545.765 237.331 544.928C238.624 544.083 240.132 543.661 241.855 543.661C243.197 543.661 244.407 543.909 245.484 544.406C246.562 544.903 247.444 545.599 248.132 546.494C248.82 547.389 249.246 548.433 249.412 549.626H246.479C246.255 548.756 245.758 547.986 244.987 547.315C244.225 546.635 243.197 546.295 241.905 546.295C240.761 546.295 239.759 546.594 238.897 547.19C238.044 547.779 237.377 548.611 236.896 549.689C236.424 550.757 236.188 552.013 236.188 553.455C236.188 554.929 236.42 556.214 236.884 557.308C237.356 558.401 238.019 559.251 238.872 559.855C239.734 560.46 240.745 560.763 241.905 560.763C242.667 560.763 243.359 560.63 243.981 560.365C244.602 560.1 245.128 559.719 245.559 559.222C245.99 558.724 246.296 558.128 246.479 557.432H249.412C249.246 558.559 248.836 559.574 248.182 560.477C247.535 561.372 246.678 562.084 245.609 562.615C244.548 563.137 243.313 563.398 241.905 563.398ZM240.513 562.901H242.949L242.75 563.895C243.396 563.994 243.989 564.264 244.527 564.703C245.066 565.15 245.335 565.859 245.335 566.828C245.335 567.897 244.892 568.767 244.005 569.438C243.127 570.118 241.83 570.457 240.115 570.457L240.016 568.518C240.786 568.518 241.424 568.394 241.93 568.146C242.443 567.905 242.7 567.499 242.7 566.928C242.7 566.356 242.489 565.966 242.066 565.759C241.644 565.552 240.96 565.411 240.016 565.337L240.513 562.901ZM262.643 563.447C261.433 563.447 260.335 563.22 259.349 562.764C258.363 562.3 257.58 561.633 257 560.763C256.42 559.884 256.13 558.824 256.13 557.581C256.13 556.487 256.346 555.601 256.776 554.921C257.207 554.233 257.783 553.695 258.504 553.305C259.225 552.916 260.02 552.626 260.89 552.435C261.769 552.237 262.651 552.079 263.538 551.963C264.698 551.814 265.638 551.702 266.359 551.627C267.088 551.545 267.619 551.408 267.95 551.217C268.29 551.027 268.46 550.695 268.46 550.223V550.124C268.46 548.897 268.124 547.944 267.453 547.265C266.79 546.585 265.783 546.246 264.433 546.246C263.032 546.246 261.934 546.552 261.139 547.165C260.344 547.779 259.784 548.433 259.461 549.129L256.677 548.135C257.174 546.975 257.837 546.072 258.666 545.425C259.503 544.771 260.414 544.315 261.4 544.058C262.394 543.793 263.372 543.661 264.333 543.661C264.946 543.661 265.651 543.735 266.446 543.884C267.25 544.025 268.025 544.319 268.77 544.767C269.524 545.214 270.15 545.889 270.647 546.793C271.144 547.696 271.393 548.906 271.393 550.422V563H268.46V560.415H268.311C268.112 560.829 267.78 561.272 267.316 561.745C266.852 562.217 266.235 562.619 265.464 562.95C264.694 563.282 263.753 563.447 262.643 563.447ZM263.09 560.812C264.25 560.812 265.228 560.585 266.024 560.129C266.827 559.673 267.432 559.085 267.838 558.364C268.253 557.643 268.46 556.885 268.46 556.089V553.405C268.335 553.554 268.062 553.691 267.639 553.815C267.225 553.931 266.744 554.035 266.198 554.126C265.659 554.209 265.133 554.283 264.619 554.349C264.114 554.407 263.703 554.457 263.389 554.499C262.626 554.598 261.914 554.76 261.251 554.983C260.596 555.199 260.066 555.526 259.66 555.965C259.262 556.396 259.063 556.984 259.063 557.73C259.063 558.749 259.44 559.52 260.194 560.042C260.957 560.556 261.922 560.812 263.09 560.812ZM300.449 563.398C298.858 563.398 297.454 562.996 296.236 562.192C295.018 561.38 294.065 560.237 293.377 558.762C292.689 557.279 292.346 555.526 292.346 553.504C292.346 551.499 292.689 549.759 293.377 548.284C294.065 546.809 295.022 545.67 296.248 544.866C297.475 544.062 298.891 543.661 300.499 543.661C301.742 543.661 302.724 543.868 303.445 544.282C304.174 544.688 304.729 545.152 305.11 545.674C305.5 546.188 305.802 546.61 306.017 546.942H306.266V537.545H309.199V563H306.365V560.067H306.017C305.802 560.415 305.495 560.854 305.098 561.384C304.7 561.906 304.132 562.374 303.395 562.789C302.657 563.195 301.676 563.398 300.449 563.398ZM300.847 560.763C302.024 560.763 303.018 560.456 303.83 559.843C304.642 559.222 305.259 558.364 305.682 557.27C306.104 556.168 306.316 554.896 306.316 553.455C306.316 552.029 306.109 550.782 305.694 549.713C305.28 548.636 304.667 547.799 303.855 547.203C303.043 546.598 302.04 546.295 300.847 546.295C299.604 546.295 298.568 546.614 297.74 547.252C296.919 547.882 296.302 548.74 295.888 549.825C295.482 550.902 295.279 552.112 295.279 553.455C295.279 554.813 295.486 556.048 295.9 557.158C296.323 558.26 296.944 559.139 297.765 559.793C298.593 560.44 299.621 560.763 300.847 560.763ZM326.059 563.398C324.336 563.398 322.824 562.988 321.523 562.167C320.23 561.347 319.219 560.199 318.49 558.724C317.769 557.25 317.409 555.526 317.409 553.554C317.409 551.565 317.769 549.829 318.49 548.346C319.219 546.863 320.23 545.711 321.523 544.891C322.824 544.071 324.336 543.661 326.059 543.661C327.783 543.661 329.291 544.071 330.584 544.891C331.884 545.711 332.895 546.863 333.616 548.346C334.345 549.829 334.71 551.565 334.71 553.554C334.71 555.526 334.345 557.25 333.616 558.724C332.895 560.199 331.884 561.347 330.584 562.167C329.291 562.988 327.783 563.398 326.059 563.398ZM326.059 560.763C327.369 560.763 328.446 560.427 329.291 559.756C330.136 559.085 330.762 558.202 331.168 557.109C331.574 556.015 331.777 554.83 331.777 553.554C331.777 552.278 331.574 551.089 331.168 549.987C330.762 548.885 330.136 547.994 329.291 547.315C328.446 546.635 327.369 546.295 326.059 546.295C324.75 546.295 323.673 546.635 322.828 547.315C321.983 547.994 321.357 548.885 320.951 549.987C320.545 551.089 320.342 552.278 320.342 553.554C320.342 554.83 320.545 556.015 320.951 557.109C321.357 558.202 321.983 559.085 322.828 559.756C323.673 560.427 324.75 560.763 326.059 560.763ZM363.984 543.909V546.395H354.09V543.909H363.984ZM356.974 539.335H359.907V557.531C359.907 558.36 360.027 558.981 360.268 559.396C360.516 559.802 360.831 560.075 361.212 560.216C361.602 560.348 362.012 560.415 362.443 560.415C362.766 560.415 363.031 560.398 363.238 560.365C363.445 560.324 363.611 560.29 363.735 560.266L364.332 562.901C364.133 562.975 363.855 563.05 363.499 563.124C363.143 563.207 362.691 563.249 362.144 563.249C361.316 563.249 360.504 563.07 359.708 562.714C358.921 562.358 358.266 561.815 357.744 561.086C357.231 560.357 356.974 559.437 356.974 558.327V539.335ZM371.721 563V543.909H374.555V546.793H374.754C375.102 545.848 375.731 545.082 376.643 544.493C377.554 543.905 378.582 543.611 379.725 543.611C379.941 543.611 380.21 543.615 380.533 543.623C380.856 543.632 381.101 543.644 381.267 543.661V546.643C381.167 546.619 380.939 546.581 380.583 546.532C380.235 546.474 379.866 546.445 379.477 546.445C378.549 546.445 377.72 546.639 376.991 547.029C376.27 547.41 375.698 547.94 375.276 548.62C374.861 549.291 374.654 550.057 374.654 550.919V563H371.721ZM393.686 563.447C392.477 563.447 391.379 563.22 390.393 562.764C389.407 562.3 388.624 561.633 388.044 560.763C387.464 559.884 387.174 558.824 387.174 557.581C387.174 556.487 387.389 555.601 387.82 554.921C388.251 554.233 388.827 553.695 389.548 553.305C390.268 552.916 391.064 552.626 391.934 552.435C392.812 552.237 393.695 552.079 394.581 551.963C395.741 551.814 396.682 551.702 397.403 551.627C398.132 551.545 398.662 551.408 398.994 551.217C399.333 551.027 399.503 550.695 399.503 550.223V550.124C399.503 548.897 399.168 547.944 398.496 547.265C397.834 546.585 396.827 546.246 395.476 546.246C394.076 546.246 392.978 546.552 392.183 547.165C391.387 547.779 390.828 548.433 390.505 549.129L387.721 548.135C388.218 546.975 388.881 546.072 389.709 545.425C390.546 544.771 391.458 544.315 392.444 544.058C393.438 543.793 394.416 543.661 395.377 543.661C395.99 543.661 396.694 543.735 397.49 543.884C398.293 544.025 399.068 544.319 399.814 544.767C400.568 545.214 401.194 545.889 401.691 546.793C402.188 547.696 402.436 548.906 402.436 550.422V563H399.503V560.415H399.354C399.155 560.829 398.824 561.272 398.36 561.745C397.896 562.217 397.278 562.619 396.508 562.95C395.737 563.282 394.797 563.447 393.686 563.447ZM394.134 560.812C395.294 560.812 396.272 560.585 397.067 560.129C397.871 559.673 398.476 559.085 398.882 558.364C399.296 557.643 399.503 556.885 399.503 556.089V553.405C399.379 553.554 399.105 553.691 398.683 553.815C398.269 553.931 397.788 554.035 397.241 554.126C396.703 554.209 396.176 554.283 395.663 554.349C395.157 554.407 394.747 554.457 394.432 554.499C393.67 554.598 392.957 554.76 392.294 554.983C391.64 555.199 391.109 555.526 390.703 555.965C390.306 556.396 390.107 556.984 390.107 557.73C390.107 558.749 390.484 559.52 391.238 560.042C392 560.556 392.966 560.812 394.134 560.812ZM411.513 563V537.545H414.446V546.942H414.695C414.91 546.61 415.209 546.188 415.59 545.674C415.979 545.152 416.534 544.688 417.255 544.282C417.984 543.868 418.97 543.661 420.213 543.661C421.821 543.661 423.238 544.062 424.464 544.866C425.69 545.67 426.647 546.809 427.335 548.284C428.023 549.759 428.367 551.499 428.367 553.504C428.367 555.526 428.023 557.279 427.335 558.762C426.647 560.237 425.694 561.38 424.476 562.192C423.258 562.996 421.854 563.398 420.263 563.398C419.037 563.398 418.055 563.195 417.317 562.789C416.58 562.374 416.012 561.906 415.615 561.384C415.217 560.854 414.91 560.415 414.695 560.067H414.347V563H411.513ZM414.396 553.455C414.396 554.896 414.608 556.168 415.03 557.27C415.453 558.364 416.07 559.222 416.882 559.843C417.694 560.456 418.689 560.763 419.865 560.763C421.092 560.763 422.115 560.44 422.935 559.793C423.764 559.139 424.385 558.26 424.8 557.158C425.222 556.048 425.433 554.813 425.433 553.455C425.433 552.112 425.226 550.902 424.812 549.825C424.406 548.74 423.789 547.882 422.96 547.252C422.14 546.614 421.108 546.295 419.865 546.295C418.672 546.295 417.669 546.598 416.857 547.203C416.045 547.799 415.432 548.636 415.018 549.713C414.604 550.782 414.396 552.029 414.396 553.455ZM441.796 563.447C440.587 563.447 439.489 563.22 438.503 562.764C437.517 562.3 436.734 561.633 436.154 560.763C435.574 559.884 435.284 558.824 435.284 557.581C435.284 556.487 435.499 555.601 435.93 554.921C436.361 554.233 436.937 553.695 437.658 553.305C438.378 552.916 439.174 552.626 440.044 552.435C440.922 552.237 441.805 552.079 442.691 551.963C443.851 551.814 444.792 551.702 445.513 551.627C446.242 551.545 446.772 551.408 447.104 551.217C447.443 551.027 447.613 550.695 447.613 550.223V550.124C447.613 548.897 447.278 547.944 446.606 547.265C445.944 546.585 444.937 546.246 443.586 546.246C442.186 546.246 441.088 546.552 440.292 547.165C439.497 547.779 438.938 548.433 438.615 549.129L435.83 548.135C436.328 546.975 436.991 546.072 437.819 545.425C438.656 544.771 439.567 544.315 440.553 544.058C441.548 543.793 442.526 543.661 443.487 543.661C444.1 543.661 444.804 543.735 445.6 543.884C446.403 544.025 447.178 544.319 447.924 544.767C448.678 545.214 449.303 545.889 449.801 546.793C450.298 547.696 450.546 548.906 450.546 550.422V563H447.613V560.415H447.464C447.265 560.829 446.934 561.272 446.47 561.745C446.006 562.217 445.388 562.619 444.618 562.95C443.847 563.282 442.907 563.447 441.796 563.447ZM442.244 560.812C443.404 560.812 444.382 560.585 445.177 560.129C445.981 559.673 446.586 559.085 446.992 558.364C447.406 557.643 447.613 556.885 447.613 556.089V553.405C447.489 553.554 447.215 553.691 446.793 553.815C446.379 553.931 445.898 554.035 445.351 554.126C444.812 554.209 444.286 554.283 443.773 554.349C443.267 554.407 442.857 554.457 442.542 554.499C441.78 554.598 441.067 554.76 440.404 554.983C439.75 555.199 439.219 555.526 438.813 555.965C438.416 556.396 438.217 556.984 438.217 557.73C438.217 558.749 438.594 559.52 439.348 560.042C440.11 560.556 441.076 560.812 442.244 560.812ZM462.158 537.545V563H459.225V537.545H462.158ZM473.789 551.516V563H470.856V537.545H473.789V546.892H474.038C474.485 545.906 475.156 545.123 476.051 544.543C476.954 543.955 478.156 543.661 479.656 543.661C480.956 543.661 482.096 543.922 483.074 544.444C484.051 544.957 484.809 545.749 485.348 546.817C485.895 547.878 486.168 549.229 486.168 550.869V563H483.235V551.068C483.235 549.552 482.842 548.379 482.054 547.551C481.275 546.714 480.194 546.295 478.81 546.295C477.849 546.295 476.987 546.498 476.225 546.904C475.471 547.31 474.875 547.903 474.435 548.682C474.005 549.461 473.789 550.405 473.789 551.516ZM502.615 563.398C500.892 563.398 499.38 562.988 498.079 562.167C496.786 561.347 495.775 560.199 495.046 558.724C494.325 557.25 493.965 555.526 493.965 553.554C493.965 551.565 494.325 549.829 495.046 548.346C495.775 546.863 496.786 545.711 498.079 544.891C499.38 544.071 500.892 543.661 502.615 543.661C504.339 543.661 505.847 544.071 507.139 544.891C508.44 545.711 509.451 546.863 510.172 548.346C510.901 549.829 511.266 551.565 511.266 553.554C511.266 555.526 510.901 557.25 510.172 558.724C509.451 560.199 508.44 561.347 507.139 562.167C505.847 562.988 504.339 563.398 502.615 563.398ZM502.615 560.763C503.924 560.763 505.002 560.427 505.847 559.756C506.692 559.085 507.318 558.202 507.724 557.109C508.13 556.015 508.333 554.83 508.333 553.554C508.333 552.278 508.13 551.089 507.724 549.987C507.318 548.885 506.692 547.994 505.847 547.315C505.002 546.635 503.924 546.295 502.615 546.295C501.306 546.295 500.229 546.635 499.384 547.315C498.539 547.994 497.913 548.885 497.507 549.987C497.101 551.089 496.898 552.278 496.898 553.554C496.898 554.83 497.101 556.015 497.507 557.109C497.913 558.202 498.539 559.085 499.384 559.756C500.229 560.427 501.306 560.763 502.615 560.763ZM248.678 605V579.545H251.76V602.266H263.592V605H248.678ZM278.809 585.909V588.395H268.915V585.909H278.809ZM271.799 581.335H274.732V599.531C274.732 600.36 274.852 600.981 275.092 601.396C275.341 601.802 275.656 602.075 276.037 602.216C276.426 602.348 276.837 602.415 277.268 602.415C277.591 602.415 277.856 602.398 278.063 602.365C278.27 602.324 278.436 602.29 278.56 602.266L279.157 604.901C278.958 604.975 278.68 605.05 278.324 605.124C277.968 605.207 277.516 605.249 276.969 605.249C276.141 605.249 275.329 605.07 274.533 604.714C273.746 604.358 273.091 603.815 272.569 603.086C272.056 602.357 271.799 601.437 271.799 600.327V581.335ZM293.55 605.398C291.959 605.398 290.554 604.996 289.336 604.192C288.118 603.38 287.165 602.237 286.478 600.762C285.79 599.279 285.446 597.526 285.446 595.504C285.446 593.499 285.79 591.759 286.478 590.284C287.165 588.809 288.122 587.67 289.349 586.866C290.575 586.062 291.992 585.661 293.599 585.661C294.842 585.661 295.824 585.868 296.545 586.282C297.274 586.688 297.829 587.152 298.211 587.674C298.6 588.188 298.902 588.61 299.118 588.942H299.366V579.545H302.3V605H299.466V602.067H299.118C298.902 602.415 298.596 602.854 298.198 603.384C297.8 603.906 297.233 604.374 296.495 604.789C295.758 605.195 294.776 605.398 293.55 605.398ZM293.947 602.763C295.124 602.763 296.118 602.456 296.93 601.843C297.742 601.222 298.36 600.364 298.782 599.27C299.205 598.168 299.416 596.896 299.416 595.455C299.416 594.029 299.209 592.782 298.795 591.713C298.38 590.636 297.767 589.799 296.955 589.203C296.143 588.598 295.141 588.295 293.947 588.295C292.705 588.295 291.669 588.614 290.84 589.252C290.02 589.882 289.403 590.74 288.988 591.825C288.582 592.902 288.379 594.112 288.379 595.455C288.379 596.813 288.586 598.048 289.001 599.158C289.423 600.26 290.045 601.139 290.865 601.793C291.694 602.44 292.721 602.763 293.947 602.763ZM317.022 605.447C315.812 605.447 314.714 605.22 313.728 604.764C312.742 604.3 311.959 603.633 311.379 602.763C310.799 601.884 310.509 600.824 310.509 599.581C310.509 598.487 310.725 597.601 311.156 596.921C311.586 596.233 312.162 595.695 312.883 595.305C313.604 594.916 314.4 594.626 315.27 594.435C316.148 594.237 317.03 594.079 317.917 593.963C319.077 593.814 320.017 593.702 320.738 593.627C321.468 593.545 321.998 593.408 322.329 593.217C322.669 593.027 322.839 592.695 322.839 592.223V592.124C322.839 590.897 322.503 589.944 321.832 589.265C321.169 588.585 320.162 588.246 318.812 588.246C317.412 588.246 316.314 588.552 315.518 589.165C314.723 589.779 314.163 590.433 313.84 591.129L311.056 590.135C311.553 588.975 312.216 588.072 313.045 587.425C313.882 586.771 314.793 586.315 315.779 586.058C316.774 585.793 317.751 585.661 318.712 585.661C319.326 585.661 320.03 585.735 320.825 585.884C321.629 586.025 322.404 586.319 323.15 586.767C323.904 587.214 324.529 587.889 325.026 588.793C325.524 589.696 325.772 590.906 325.772 592.422V605H322.839V602.415H322.69C322.491 602.829 322.159 603.272 321.695 603.745C321.231 604.217 320.614 604.619 319.843 604.95C319.073 605.282 318.132 605.447 317.022 605.447ZM317.47 602.812C318.63 602.812 319.607 602.585 320.403 602.129C321.207 601.673 321.811 601.085 322.217 600.364C322.632 599.643 322.839 598.885 322.839 598.089V595.405C322.715 595.554 322.441 595.691 322.019 595.815C321.604 595.931 321.124 596.035 320.577 596.126C320.038 596.209 319.512 596.283 318.998 596.349C318.493 596.407 318.083 596.457 317.768 596.499C317.006 596.598 316.293 596.76 315.63 596.983C314.975 597.199 314.445 597.526 314.039 597.965C313.641 598.396 313.443 598.984 313.443 599.73C313.443 600.749 313.82 601.52 314.574 602.042C315.336 602.556 316.301 602.812 317.47 602.812ZM336.589 605.199C335.976 605.199 335.449 604.979 335.01 604.54C334.571 604.101 334.351 603.575 334.351 602.962C334.351 602.348 334.571 601.822 335.01 601.383C335.449 600.944 335.976 600.724 336.589 600.724C337.202 600.724 337.728 600.944 338.167 601.383C338.606 601.822 338.826 602.348 338.826 602.962C338.826 603.368 338.722 603.741 338.515 604.08C338.316 604.42 338.047 604.693 337.707 604.901C337.376 605.099 337.003 605.199 336.589 605.199Z" fill="black"/>
<defs>
<filter id="filter0_i_22_2204" x="265.675" y="-20" width="189.828" height="360.5" filterUnits="userSpaceOnUse" color-interpolation-filters="sRGB">
<feFlood flood-opacity="0" result="BackgroundImageFix"/>
<feBlend mode="normal" in="SourceGraphic" in2="BackgroundImageFix" result="shape"/>
<feColorMatrix in="SourceAlpha" type="matrix" values="0 0 0 0 0 0 0 0 0 0 0 0 0 0 0 0 0 0 127 0" result="hardAlpha"/>
<feOffset dx="-1" dy="-20"/>
<feGaussianBlur stdDeviation="17"/>
<feComposite in2="hardAlpha" operator="arithmetic" k2="-1" k3="1"/>
<feColorMatrix type="matrix" values="0 0 0 0 0 0 0 0 0 0 0 0 0 0 0 0 0 0 0.25 0"/>
<feBlend mode="normal" in2="shape" result="effect1_innerShadow_22_2204"/>
</filter>
<filter id="filter1_i_22_2204" x="129" y="-20" width="189.828" height="360.5" filterUnits="userSpaceOnUse" color-interpolation-filters="sRGB">
<feFlood flood-opacity="0" result="BackgroundImageFix"/>
<feBlend mode="normal" in="SourceGraphic" in2="BackgroundImageFix" result="shape"/>
<feColorMatrix in="SourceAlpha" type="matrix" values="0 0 0 0 0 0 0 0 0 0 0 0 0 0 0 0 0 0 127 0" result="hardAlpha"/>
<feOffset dx="-1" dy="-20"/>
<feGaussianBlur stdDeviation="17"/>
<feComposite in2="hardAlpha" operator="arithmetic" k2="-1" k3="1"/>
<feColorMatrix type="matrix" values="0 0 0 0 0 0 0 0 0 0 0 0 0 0 0 0 0 0 0.25 0"/>
<feBlend mode="normal" in2="shape" result="effect1_innerShadow_22_2204"/>
</filter>
<linearGradient id="paint0_linear_22_2204" x1="456" y1="21" x2="222" y2="435.5" gradientUnits="userSpaceOnUse">
<stop stop-color="#2675C0"/>
<stop offset="0.720726" stop-color="#0F417C"/>
<stop offset="1" stop-color="#2675C0" stop-opacity="0"/>
</linearGradient>
<linearGradient id="paint1_linear_22_2204" x1="129.503" y1="319.5" x2="363.503" y2="-95" gradientUnits="userSpaceOnUse">
<stop stop-color="#2675C0"/>
<stop offset="0.720726" stop-color="#0F417C"/>
<stop offset="1" stop-color="#2675C0" stop-opacity="0"/>
</linearGradient>
</defs>
</svg>
