<svg width="108" height="114" viewBox="0 0 108 114" fill="none" xmlns="http://www.w3.org/2000/svg">
<g filter="url(#filter0_i_15_197)">
<path d="M70.4877 55.6274L54.2216 73.8852C59.7495 81.7439 62.3494 85.7563 62.553 93.9688C62.6217 96.7375 62.0848 99.1088 61.3587 101.272C59.8649 105.587 57.2733 108.974 53.5576 113.057C53.5576 113.057 85.61 81.1004 105.509 60.1089C107.24 58.2831 108.031 58.1037 107.999 56.1253C107.968 54.1799 107.003 53.8016 105.343 52.3078C84.2012 33.2797 54.3876 0.0239868 54.3876 0.0239868C43.2752 11.2365 41.3491 24.4566 54.3876 39.8593L70.4877 55.6274Z" fill="url(#paint0_linear_15_197)"/>
</g>
<g filter="url(#filter1_i_15_197)">
<path d="M54.2756 39.6693C44.1499 23.9012 42.5026 15.8866 54.4416 1.52588e-05C54.4416 1.52588e-05 22.3902 31.9562 2.49065 52.9477C0.759846 54.7735 -0.0309944 54.9529 0.00094223 56.9313C0.0323486 58.8767 0.996826 59.255 2.65663 60.7488C23.7989 79.7769 53.6125 113.033 53.6125 113.033C64.7249 101.82 66.6511 88.5999 53.6125 73.1973L37.5124 57.4292L54.2756 39.6693Z" fill="url(#paint1_linear_15_197)"/>
</g>
<defs>
<filter id="filter0_i_15_197" x="45.3167" y="0.0239868" width="85.6835" height="113.033" filterUnits="userSpaceOnUse" color-interpolation-filters="sRGB">
<feFlood flood-opacity="0" result="BackgroundImageFix"/>
<feBlend mode="normal" in="SourceGraphic" in2="BackgroundImageFix" result="shape"/>
<feColorMatrix in="SourceAlpha" type="matrix" values="0 0 0 0 0 0 0 0 0 0 0 0 0 0 0 0 0 0 127 0" result="hardAlpha"/>
<feOffset dx="23"/>
<feGaussianBlur stdDeviation="17"/>
<feComposite in2="hardAlpha" operator="arithmetic" k2="-1" k3="1"/>
<feColorMatrix type="matrix" values="0 0 0 0 0 0 0 0 0 0 0 0 0 0 0 0 0 0 0.25 0"/>
<feBlend mode="normal" in2="shape" result="effect1_innerShadow_15_197"/>
</filter>
<filter id="filter1_i_15_197" x="-33" y="0" width="95.6835" height="113.033" filterUnits="userSpaceOnUse" color-interpolation-filters="sRGB">
<feFlood flood-opacity="0" result="BackgroundImageFix"/>
<feBlend mode="normal" in="SourceGraphic" in2="BackgroundImageFix" result="shape"/>
<feColorMatrix in="SourceAlpha" type="matrix" values="0 0 0 0 0 0 0 0 0 0 0 0 0 0 0 0 0 0 127 0" result="hardAlpha"/>
<feOffset dx="-33"/>
<feGaussianBlur stdDeviation="17"/>
<feComposite in2="hardAlpha" operator="arithmetic" k2="-1" k3="1"/>
<feColorMatrix type="matrix" values="0 0 0 0 0 0 0 0 0 0 0 0 0 0 0 0 0 0 0.25 0"/>
<feBlend mode="normal" in2="shape" result="effect1_innerShadow_15_197"/>
</filter>
<linearGradient id="paint0_linear_15_197" x1="108.165" y1="6.99516" x2="30.4864" y2="144.593" gradientUnits="userSpaceOnUse">
<stop offset="0.307292" stop-color="white"/>
<stop offset="0.692708" stop-color="#648AB8"/>
<stop offset="1" stop-color="#2675C0" stop-opacity="0"/>
</linearGradient>
<linearGradient id="paint1_linear_15_197" x1="-0.165045" y1="106.061" x2="77.5137" y2="-31.5363" gradientUnits="userSpaceOnUse">
<stop offset="0.307292" stop-color="white"/>
<stop offset="0.692708" stop-color="#648AB8"/>
<stop offset="1" stop-color="#2675C0" stop-opacity="0"/>
</linearGradient>
</defs>
</svg>
