<svg width="51" height="50" viewBox="0 0 51 50" fill="none" xmlns="http://www.w3.org/2000/svg">
<path d="M45.3333 37.0834C46.6152 37.0834 47.8446 36.5741 48.751 35.6677C49.6574 34.7613 50.1667 33.5319 50.1667 32.25V5.66671C50.1667 4.38483 49.6574 3.15545 48.751 2.24902C47.8446 1.3426 46.6152 0.833374 45.3333 0.833374H19.8617C20.7075 2.30754 21.1667 3.97504 21.1667 5.66671H45.3333V32.25H23.5833V37.0834M33.25 12.9167V17.75H18.75V49.1667H13.9167V34.6667H9.08333V49.1667H4.25V29.8334H0.625V17.75C0.625 16.4682 1.13422 15.2388 2.04065 14.3324C2.94708 13.4259 4.17645 12.9167 5.45833 12.9167H33.25ZM16.3333 5.66671C16.3333 6.94859 15.8241 8.17796 14.9177 9.08439C14.0113 9.99082 12.7819 10.5 11.5 10.5C10.2181 10.5 8.98874 9.99082 8.08232 9.08439C7.17589 8.17796 6.66667 6.94859 6.66667 5.66671C6.66667 4.38483 7.17589 3.15545 8.08232 2.24902C8.98874 1.3426 10.2181 0.833374 11.5 0.833374C12.7819 0.833374 14.0113 1.3426 14.9177 2.24902C15.8241 3.15545 16.3333 4.38483 16.3333 5.66671Z" fill="#3DA6FF"/>
</svg>
