<svg width="79" height="77" viewBox="0 0 79 77" fill="none" xmlns="http://www.w3.org/2000/svg">
<path fill-rule="evenodd" clip-rule="evenodd" d="M34.9325 27.2042C35.9662 27.9196 36.7816 28.8946 37.2921 30.0257C37.8025 31.1567 37.9889 32.4015 37.8313 33.6275L35.718 50.1198C35.4982 51.8288 34.652 53.3098 33.427 54.3716H51.942L49.1554 31.3102C48.9169 29.3279 47.5096 27.9607 45.948 27.6941C42.0416 27.0288 38.6776 26.8579 34.9325 27.2042ZM53.7982 30.777C53.3447 27.022 50.5721 23.857 46.7522 23.2053C41.0247 22.2278 36.251 22.2187 30.2921 23.2236C26.4511 23.8707 23.6528 27.0425 23.1946 30.8158L19.7979 58.9288H57.202L53.7982 30.777ZM33.1932 33.0624L31.0775 49.5547C31.0462 49.857 30.9532 50.15 30.804 50.4167C30.6548 50.6834 30.4523 50.9183 30.2086 51.1076C29.9649 51.2969 29.6848 51.4368 29.3848 51.5191C29.0848 51.6014 28.7709 51.6244 28.4617 51.5867C28.1524 51.549 27.854 51.4514 27.584 51.2997C27.314 51.148 27.0779 50.9452 26.8895 50.7032C26.701 50.4613 26.5642 50.185 26.4869 49.8907C26.4096 49.5965 26.3935 49.2901 26.4394 48.9897L28.5551 32.4974C28.5864 32.1951 28.6794 31.9021 28.8287 31.6354C28.9779 31.3687 29.1803 31.1338 29.424 30.9445C29.6678 30.7552 29.9479 30.6153 30.2479 30.533C30.5479 30.4507 30.8617 30.4277 31.171 30.4654C31.4802 30.5031 31.7786 30.6007 32.0486 30.7524C32.3186 30.9041 32.5548 31.1069 32.7432 31.3489C32.9316 31.5908 33.0685 31.8671 33.1457 32.1614C33.223 32.4556 33.2392 32.762 33.1932 33.0624ZM59.5397 68.0431H17.4601V63.4859H59.5397V68.0431Z" fill="#3DA6FF"/>
<path d="M12.7847 40.7001C12.7847 41.4679 12.8198 42.2267 12.8899 42.9786H5.77142V38.4215H12.8899C12.8198 39.1734 12.7847 39.9322 12.7847 40.7001ZM17.4883 26.2448C16.5866 27.4881 15.8034 28.8091 15.1482 30.1913L8.98818 26.7233L11.3259 22.7768L17.4883 26.2448ZM27.7159 17.9371C26.2922 18.582 24.9387 19.3476 23.6716 20.2203L20.1112 14.2139L24.1602 11.9354L27.7159 17.9371ZM38.5 15.6358C37.7122 15.6358 36.9337 15.6699 36.1622 15.7383V8.80005H40.8378V15.7383C40.0605 15.6701 39.2804 15.6359 38.5 15.6358ZM53.3307 20.2203C52.055 19.3416 50.6997 18.5781 49.2817 17.9394L52.8398 11.9354L56.8888 14.2139L53.3307 20.2203ZM61.8542 30.189C61.198 28.8083 60.4139 27.4889 59.5117 26.2471L65.6741 22.7768L68.0118 26.7233L61.8518 30.189H61.8542ZM64.2153 40.7001C64.2153 39.9322 64.1802 39.1734 64.1101 38.4215H71.2286V42.9786H64.1101C64.1802 42.2267 64.2153 41.4679 64.2153 40.7001Z" fill="#3DA6FF"/>
</svg>
