<svg width="62" height="62" viewBox="0 0 62 62" fill="none" xmlns="http://www.w3.org/2000/svg">
<path d="M48.3333 61.3336H13.6667C6.49932 61.3336 0.666656 55.501 0.666656 48.3336V13.667C0.666656 6.49966 6.49932 0.666992 13.6667 0.666992H35.3333C36.4826 0.666992 37.5848 1.12354 38.3974 1.9362C39.2101 2.74885 39.6666 3.85105 39.6666 5.00032C39.6666 6.1496 39.2101 7.25179 38.3974 8.06445C37.5848 8.87711 36.4826 9.33366 35.3333 9.33366H13.6667C11.2747 9.33366 9.33332 11.2793 9.33332 13.667V48.3336C9.33332 50.7213 11.2747 52.667 13.6667 52.667H48.3333C50.7253 52.667 52.6666 50.7213 52.6666 48.3336V35.3336C52.6666 34.1844 53.1232 33.0822 53.9358 32.2695C54.7485 31.4569 55.8507 31.0003 57 31.0003C58.1492 31.0003 59.2514 31.4569 60.0641 32.2695C60.8768 33.0822 61.3333 34.1844 61.3333 35.3336V48.3336C61.3333 55.501 55.5006 61.3336 48.3333 61.3336ZM36.0526 43.2766C34.536 43.2766 33.067 42.6743 31.975 41.5823L20.4137 30.0253C19.3737 28.9322 18.8024 27.4759 18.8215 25.9673C18.8407 24.4587 19.449 23.0174 20.5164 21.9511C21.5838 20.8849 23.0257 20.2782 24.5343 20.2606C26.043 20.243 27.4987 20.8159 28.5906 21.857L34.7266 27.9973L49.785 4.35899C50.1409 3.67309 50.6307 3.06551 51.2254 2.57216C51.8201 2.07881 52.5078 1.70972 53.2476 1.48669C53.9875 1.26366 54.7645 1.19122 55.5328 1.27367C56.3012 1.35612 57.0451 1.59177 57.7208 1.9667C58.3965 2.34162 58.9901 2.84822 59.4667 3.45652C59.9432 4.06482 60.2929 4.76249 60.4952 5.50829C60.6974 6.25408 60.7481 7.03285 60.6442 7.79856C60.5403 8.56428 60.284 9.30139 59.8903 9.96632L41.1096 40.2996C40.676 41.0814 40.0667 41.7518 39.3297 42.2579C38.5928 42.764 37.7483 43.0919 36.863 43.216L36.0526 43.2766Z" fill="#3DA6FF"/>
</svg>
