<svg width="58" height="58" viewBox="0 0 58 58" fill="none" xmlns="http://www.w3.org/2000/svg">
<path d="M14.5 18.125H29V21.75H14.5V18.125ZM14.5 10.875H36.25V14.5H14.5V10.875ZM14.5 3.625H36.25V7.25H14.5V3.625Z" fill="#3DA6FF"/>
<path d="M8.53869 50.75L18.7449 32.6322L32.219 44.3954C32.6263 44.7578 33.1101 45.0237 33.6344 45.1733C34.1587 45.3228 34.71 45.3522 35.2472 45.2592C35.7845 45.1661 36.2938 44.9531 36.7373 44.636C37.1808 44.3189 37.547 43.9058 37.8088 43.4275L50.4419 24.5721L47.4313 22.5529L34.7438 41.4899L34.6169 41.6766L21.141 29.9135C20.7338 29.5531 20.2509 29.2888 19.7279 29.1401C19.2049 28.9914 18.6551 28.962 18.1192 29.0543C17.5834 29.1465 17.0751 29.3579 16.6318 29.6729C16.1886 29.9879 15.8218 30.3984 15.5585 30.8741L7.25 45.6442V3.625H3.625V50.75C3.62596 51.7111 4.00819 52.6326 4.6878 53.3122C5.36741 53.9918 6.28888 54.374 7.25 54.375H54.375V50.75H8.53869Z" fill="#3DA6FF"/>
</svg>
